<?xml version="1.0" standalone="no"?>
<!DOCTYPE svg PUBLIC "-//W3C//DTD SVG 20010904//EN"
 "http://www.w3.org/TR/2001/REC-SVG-20010904/DTD/svg10.dtd">
<svg version="1.0" xmlns="http://www.w3.org/2000/svg"
 width="150.000000pt" height="150.000000pt" viewBox="0 0 150.000000 150.000000"
 preserveAspectRatio="xMidYMid meet">
<metadata>
Created by potrace 1.14, written by Peter Selinger 2001-2017
</metadata>
<g transform="translate(0.000000,150.000000) scale(0.100000,-0.100000)"
fill="#000000" stroke="none">
<path d="M427 1494 c-1 -1 -36 -4 -77 -7 -164 -12 -235 -45 -293 -137 -43 -67
-51 -170 -50 -615 0 -397 2 -432 28 -522 35 -123 111 -178 280 -200 63 -8 768
-8 855 0 221 21 297 100 318 333 7 78 6 807 -1 849 -22 122 -45 173 -99 219
-43 37 -113 63 -198 72 -47 6 -757 13 -763 8z"/>
</g>
</svg>
