<svg width="703" height="153" viewBox="0 0 703 153" fill="none" xmlns="http://www.w3.org/2000/svg">
<path d="M152 76C152 117.415 118.204 151 76.5 151C34.7963 151 1 117.415 1 76C1 34.5848 34.7963 1 76.5 1C118.204 1 152 34.5848 152 76Z" fill="white" stroke="#808080" stroke-width="2"/>
<g clip-path="url(#clip0_2_34)">
<path d="M112.433 52.8035C111.681 51.0488 110.427 49.0426 108.17 47.5382C107.168 46.786 105.913 46.0338 104.659 45.5319C103.657 45.2816 102.653 45.03 101.399 45.03H101.149C99.6444 45.03 96.8859 45.2803 95.3816 47.5382C94.6294 48.2904 94.3791 49.7948 94.6294 51.0488C94.8797 52.0513 95.6319 53.0551 96.6356 53.3054C96.6356 53.3054 96.8859 53.5557 97.3878 53.5557C97.3878 53.806 97.1375 54.3079 97.1375 54.3079C96.3853 55.0601 95.1313 56.3141 91.3703 56.3141H91.12C89.1138 56.0638 87.6094 55.562 85.3528 53.3054C84.0987 51.801 83.3466 49.0426 83.3466 44.7797C83.3466 42.5232 83.0963 40.7672 82.5944 39.2628C82.3441 38.2603 81.3403 37.2566 80.5881 36.7547C79.8359 36.2528 79.334 36.0025 78.0799 35.5006L73.8158 35C72.3114 35 71.3077 35.2503 70.8071 36.0025H69.3027C68.5505 36.0025 67.548 36.2528 66.7945 36.2528C65.2902 36.5031 64.2864 37.2553 63.2839 38.0075C63.0336 38.2578 62.0298 39.2615 61.7795 40.264C61.7795 41.0162 62.0298 41.7684 62.0298 42.0187L62.2801 42.269C62.782 41.7671 63.7845 41.5168 65.0386 41.5168C66.7932 41.5168 69.3014 42.269 69.8033 43.5231C71.0574 45.5293 70.5555 47.0337 70.5555 48.7884C69.8033 53.5531 68.0473 55.8097 64.2864 56.3103C63.5342 56.5605 62.782 56.5605 62.2801 56.5605C59.5217 56.5605 57.5154 55.8084 56.5129 54.0524V53.5505C56.5129 53.5505 56.7632 53.5505 57.0148 53.3002C58.0173 52.7983 58.7695 52.0461 59.0211 51.0436C59.2714 49.7896 59.0211 48.5355 58.2689 47.533C56.7645 46.0286 54.7582 45.0248 52.5017 45.0248C50.9973 45.0248 49.9935 45.2751 48.991 45.5267C45.9823 46.2789 43.2238 48.7871 41.2176 52.7983C39.7132 55.8071 38.7094 59.3177 38.4591 63.3289C38.2088 67.3402 38.2088 70.6005 38.4591 73.6093C38.7094 78.6243 39.7132 81.633 40.9673 84.8921C42.2214 88.1511 43.7257 91.1612 45.4804 93.9183C45.9823 94.6705 46.2326 95.4227 46.7345 95.9246L46.9848 95.6743C47.2351 95.424 47.4867 95.1724 47.737 94.6718C48.7394 93.9196 50.4954 91.4115 50.9973 90.6593C51.4992 89.9071 52.2514 88.653 52.752 87.3989L53.0023 86.897L53.5042 87.1473C54.0061 87.6492 54.2564 88.4014 54.2564 89.1536C54.2564 89.9058 54.0061 90.658 53.5042 92.1624C53.0023 93.917 51.9998 95.9233 50.996 97.9296C51.2463 98.1799 51.2463 98.6818 50.996 98.6818C50.2438 99.9358 50.2438 100.436 50.2438 100.938H50.4941C50.7444 100.938 51.7482 100.688 52.5004 99.9358C53.2526 99.4339 55.2588 97.6793 57.7657 94.1686C59.772 91.6605 61.026 88.9033 62.5304 85.8946L62.7807 85.3927L63.2826 85.643C63.5329 85.8933 63.7845 85.8933 64.0348 86.1449C64.2851 86.6468 64.2851 87.3989 64.2851 88.1511C64.0348 90.1574 62.7807 92.9158 62.0285 94.9208C60.5241 98.4315 57.7657 102.192 55.7594 104.951C55.7594 105.201 55.2575 105.703 55.0072 105.703C55.2575 105.953 55.5091 106.205 56.0097 106.455L56.7619 107.207C59.5204 109.464 62.0272 111.22 65.2876 112.975C67.7957 114.479 72.8094 116.987 76.3214 117.99C79.832 117.237 84.847 114.479 87.3552 112.975C90.6155 111.22 93.1224 109.464 95.8809 107.207L96.633 106.455C97.1349 106.205 97.3852 105.703 97.6355 105.703C97.8858 105.201 97.8858 104.951 97.8858 104.701L97.6355 104.45C95.6293 101.942 92.8708 97.9309 91.3664 94.4202C90.6142 92.414 89.3602 89.6555 89.1099 87.6505C88.8596 86.8983 89.1099 86.1462 89.3602 85.6443L89.8621 85.1424C90.1124 84.8921 90.6142 84.8921 90.6142 84.8921L90.8645 85.394C92.3689 88.4027 93.8733 91.1612 95.6293 93.668C98.1374 97.1787 100.142 98.9334 100.895 99.4352C101.647 100.187 102.399 100.438 102.901 100.438H103.151C103.401 100.187 103.151 99.6855 102.399 98.4315C102.149 98.1812 102.149 97.9296 102.149 97.6793C101.146 95.673 100.142 93.6667 99.6405 91.9121C99.1386 90.4077 98.8883 89.4039 98.8883 88.9033C98.8883 88.1511 99.1386 87.3989 99.6405 86.897L100.142 86.6468L100.393 87.1486C100.895 88.4027 101.897 89.9071 102.399 90.6593C102.901 91.4115 104.907 93.668 105.408 94.4202C105.91 94.9221 106.16 95.1724 106.16 95.4227L106.41 95.673C106.66 95.4227 106.912 94.9208 107.413 93.9183L107.663 93.668C109.167 91.1599 110.672 87.9008 111.926 84.6418C113.18 81.633 113.932 78.3727 114.434 73.359C114.684 70.3502 114.936 67.0899 114.434 63.0786C114.684 59.3177 113.682 55.5568 112.428 52.7983L112.433 52.8035Z" fill="url(#paint0_radial_2_34)"/>
</g>
<circle cx="260" cy="76" r="75" fill="white" stroke="#808080" stroke-width="2"/>
<path d="M230.803 46H290.268V105.929H230.803V46Z" fill="white"/>
<path d="M320 76.0353L290.268 46V106L320 76.0353ZM260.535 76.0353L290.268 46H230.803L260.535 76.0353Z" fill="#DB0011"/>
<path d="M201 76.0353L230.803 106V46L201 76.0353ZM260.535 76.0353L230.803 106H290.268L260.535 76.0353Z" fill="#DB0011"/>
<circle cx="443.206" cy="76.2058" r="75.2058" fill="white" stroke="#808080" stroke-width="2"/>
<path d="M488.269 94.8555C488.269 95.9623 487.83 97.0265 487.047 97.8124L468.327 116.532C468.093 116.767 467.796 116.926 467.471 116.991C467.147 117.055 466.811 117.022 466.506 116.896C466.2 116.769 465.939 116.555 465.756 116.279C465.572 116.004 465.474 115.681 465.475 115.35V73.4373L488.013 51.0269H488.275L488.269 94.8555Z" fill="#E34B5F"/>
<path d="M473.329 36.0531C473.174 35.8976 472.99 35.7743 472.787 35.6902C472.584 35.606 472.367 35.5627 472.147 35.5627C471.927 35.5627 471.71 35.606 471.507 35.6902C471.304 35.7743 471.12 35.8976 470.965 36.0531L443.132 63.886H442.746V95.3012L443.132 96.1263L488.267 50.9912L473.329 36.0531Z" fill="#E7CE9C"/>
<path d="M397.99 94.8555C397.99 95.9689 398.429 97.0265 399.212 97.8124L417.932 116.532C418.165 116.767 418.463 116.926 418.787 116.991C419.112 117.055 419.448 117.022 419.753 116.896C420.059 116.769 420.32 116.555 420.503 116.279C420.687 116.004 420.784 115.681 420.784 115.35V73.4373L398.256 51.0269H397.994L397.99 94.8555Z" fill="#1E7889"/>
<path d="M415.296 36.0531C415.141 35.8976 414.957 35.7743 414.754 35.6902C414.551 35.606 414.333 35.5627 414.114 35.5627C413.894 35.5627 413.677 35.606 413.474 35.6902C413.271 35.7743 413.087 35.8976 412.932 36.0531L397.99 50.9912L443.129 96.1296V63.8893L415.296 36.0531Z" fill="#97BAA6"/>
<circle cx="626.206" cy="76.2058" r="75.2058" fill="white" stroke="#808080" stroke-width="2"/>
<path d="M583.98 81.445V77.114H595.631V66.012H600.206V77.114H611.857V81.445H600.206V92.608H595.631V81.445H583.98ZM624.423 97V60.034L617.53 61.559V58.021L626.131 54.3H629.608V97H624.423ZM653.993 97.732C650.903 97.732 648.3 97.1627 646.185 96.024C644.071 94.8447 642.363 93.279 641.061 91.327C639.801 89.375 638.865 87.1993 638.255 84.8C637.686 82.36 637.401 79.8793 637.401 77.358C637.401 72.6407 638.052 68.513 639.353 64.975C640.655 61.3963 642.525 58.6107 644.965 56.618C647.446 54.5847 650.435 53.568 653.932 53.568C656.616 53.568 658.914 54.0967 660.825 55.154C662.737 56.2113 664.241 57.6347 665.339 59.424C666.478 61.1727 667.19 63.1247 667.474 65.28H662.716C662.269 62.962 661.273 61.1727 659.727 59.912C658.182 58.6513 656.23 58.021 653.871 58.021C650.659 58.021 647.954 59.546 645.758 62.596C643.603 65.6053 642.444 70.3227 642.281 76.748C643.257 74.8367 644.803 73.1897 646.917 71.807C649.073 70.3837 651.655 69.672 654.664 69.672C657.104 69.672 659.382 70.2413 661.496 71.38C663.652 72.5187 665.4 74.125 666.742 76.199C668.084 78.2323 668.755 80.6317 668.755 83.397C668.755 85.7963 668.166 88.094 666.986 90.29C665.807 92.486 664.099 94.2753 661.862 95.658C659.666 97.0407 657.043 97.732 653.993 97.732ZM653.627 93.218C655.539 93.218 657.247 92.8113 658.751 91.998C660.256 91.1847 661.435 90.0663 662.289 88.643C663.143 87.179 663.57 85.5117 663.57 83.641C663.57 80.7537 662.615 78.456 660.703 76.748C658.833 74.9993 656.474 74.125 653.627 74.125C651.716 74.125 650.008 74.5723 648.503 75.467C646.999 76.321 645.799 77.48 644.904 78.944C644.05 80.408 643.623 81.994 643.623 83.702C643.623 85.532 644.05 87.179 644.904 88.643C645.799 90.0663 646.999 91.1847 648.503 91.998C650.008 92.8113 651.716 93.218 653.627 93.218Z" fill="black"/>
<defs>
<radialGradient id="paint0_radial_2_34" cx="0" cy="0" r="1" gradientUnits="userSpaceOnUse" gradientTransform="translate(40.4794 49.48) scale(84.6959 84.6957)">
<stop stop-color="#20C4F4"/>
<stop offset="0.305" stop-color="#09B4F0"/>
<stop offset="0.5" stop-color="#00AEEF"/>
<stop offset="0.8" stop-color="#0092C8"/>
<stop offset="1" stop-color="#006E98"/>
</radialGradient>
<clipPath id="clip0_2_34">
<rect width="83" height="83" fill="white" transform="translate(35 35)"/>
</clipPath>
</defs>
</svg>
