<svg id="Layer_1" data-name="Layer 1" xmlns="http://www.w3.org/2000/svg" xmlns:xlink="http://www.w3.org/1999/xlink" viewBox="0 0 841.89 595.28"><defs><style>.cls-1{fill:none;}.cls-2{fill:#020304;}.cls-3{clip-path:url(#clip-path);}.cls-4{fill:#6875b7;}.cls-5{font-size:13px;fill:#1d1d1b;font-family:DMSans-Bold, DM Sans;font-weight:700;letter-spacing:0.18em;}.cls-6{letter-spacing:0.2em;}</style><clipPath id="clip-path"><rect class="cls-1" width="841.89" height="595.28"/></clipPath></defs><rect class="cls-2" x="-1.05" width="842.94" height="595.28"/><g class="cls-3"><path class="cls-4" d="M428.77,469.32c-6.84-.59-12.32,2.61-17.64,6.28-2.33,1.6-5.1,1.41-6.39-.58a4.68,4.68,0,0,1,1.47-6.72C411.07,465,416,462,421.84,461c2.28-.39,4.62-.48,6.93-.71Z"/><path class="cls-4" d="M428.77,255c-6.82-.55-12.3,2.62-17.62,6.27-2.28,1.55-5,1.37-6.24-.39-1.81-2.58-1.3-4.84,1.35-6.83,4.7-3.51,9.73-6.34,15.59-7.35,2.28-.39,4.61-.48,6.92-.7Z"/><path class="cls-4" d="M168.09,208.65c3.42,1.29,6.83,2.6,10.26,3.87a4.64,4.64,0,0,1,3.36,4.39,3.75,3.75,0,0,1-2.71,3.85,7,7,0,0,1-3.52.12c-7.22-2-14.19-4.72-20.37-9.11-1.42-1-2.78-2.08-4.17-3.12Z"/><path class="cls-4" d="M382,208.65c3.5,1.29,7,2.67,10.51,3.83a4.66,4.66,0,0,1,3.19,6.05c-.77,2-3.39,3.1-5.88,2.4-9-2.51-17.31-6.28-24.54-12.28Z"/><path class="cls-4" d="M83.19,208.65c-1.85,3.64-3.49,7.41-5.64,10.87a43.61,43.61,0,0,1-5.62,6.57,4.54,4.54,0,0,1-6.6.06c-1.57-1.53-1.34-4.37.39-6.27,3.13-3.42,6.28-6.83,8-11.23Z"/><path class="cls-4" d="M297.57,208.65c-1.91,3.69-3.61,7.51-5.79,11a41.91,41.91,0,0,1-5.47,6.4,4.55,4.55,0,0,1-6.59.09c-1.53-1.5-1.32-4.46.38-6.28,3.17-3.4,6.16-6.92,8-11.24Z"/><path class="cls-4" d="M428.77,342.41c-2.91.67-5.82,1.32-8.72,2-4,.95-6.69-.76-6.71-4.32a4.3,4.3,0,0,1,3.45-4.14c4-1,8-2.26,12-3.41Z"/><path class="cls-4" d="M428.77,556.35c-3.78.86-7.54,1.87-11.35,2.5a3.76,3.76,0,0,1-4.08-3.18,4.48,4.48,0,0,1,3.07-5.15c2.62-.7,5.3-1.18,7.91-1.9,1.52-.42,3-1.13,4.45-1.7Z"/><path class="cls-4" d="M245.26,208.65c-2.13,3.66-4.39,7.25-6.33,11-1.34,2.59-3.34,3.86-5.65,2.95a4.45,4.45,0,0,1-2.37-6.2c1.11-2.63,2.41-5.17,3.63-7.75Z"/><path class="cls-4" d="M30.89,208.65a32.65,32.65,0,0,0-6.07,10.74,4.76,4.76,0,0,1-5,3.4,4.14,4.14,0,0,1-3.68-4c0-1.71.85-3.46,1.52-5.1s1.68-3.39,2.53-5.08Z"/><path class="cls-4" d="M54.83,295.25c-1.78-.23-4.14-.62-6.51-.84-7.23-.7-13.75,1.54-20,4.89-2.54,1.37-4.29,1.11-5.87-.68a4.33,4.33,0,0,1,1.09-6.53c6.27-3.38,12.68-6.49,20.06-6.24,4.42.14,8.83.47,13.24.88,2,.18,3.86,2.89,3.61,4.82C60.16,293.92,58.35,295.25,54.83,295.25Z"/><path class="cls-4" d="M270.33,295.25c-3.6-.33-6.54-.65-9.49-.85-6.34-.42-12,1.71-17.49,4.64-1.57.84-3.06,1.73-5.12.67a4.3,4.3,0,0,1-.36-7.54c5.9-3.3,12-6.31,18.92-6.3,4.84,0,9.69.47,14.52.86,1.79.15,3.68,2.78,3.52,4.47C274.57,294,273,295.26,270.33,295.25Z"/><path class="cls-4" d="M45.61,508.57c-6.44-.08-12,2.54-17.63,5.18a6.78,6.78,0,0,1-4.75-.16,3.15,3.15,0,0,1-1.7-4,6,6,0,0,1,2.26-3.25,45.93,45.93,0,0,1,16-6.07,43.61,43.61,0,0,1,15.15.53,10.77,10.77,0,0,1,3.84,1.38c1.69,1.14,2,2.89,1.26,4.84a3.62,3.62,0,0,1-3.91,2.54c-1.76-.07-3.51-.26-5.27-.43S47.36,508.77,45.61,508.57Z"/><path class="cls-4" d="M271,509.62c-4.36-.35-7.52-.68-10.69-.85-6.42-.34-12.11,2-17.6,5a4.61,4.61,0,0,1-6.42-1.59,4.46,4.46,0,0,1,2.17-6c4.9-2.61,9.89-5.13,15.45-5.71a102.63,102.63,0,0,1,12.65-.09,26.78,26.78,0,0,1,3.92.67c2.66.44,4.58,2.41,4.39,4.51C274.6,508.22,272.86,509.62,271,509.62Z"/><path class="cls-4" d="M301,412.31c-1.34,4.25-2.45,8.58-4.06,12.72-2.31,5.9-6.17,10.83-10.52,15.41a4.47,4.47,0,0,1-6.45.24,4.53,4.53,0,0,1,.22-6.58,40.13,40.13,0,0,0,11.41-21.33,9.05,9.05,0,0,1,1.46-3.4c1.11-1.51,2.61-2.31,4.61-1.39A5.45,5.45,0,0,1,301,412.31Z"/><path class="cls-4" d="M86.17,413.81c-.87,2.73-2,6.68-3.37,10.56-2.15,6.15-6.12,11.15-10.57,15.78-1.43,1.49-3.15,2.35-5.32,1.31-3-1.45-3.54-4.54-1.31-7.11a101.8,101.8,0,0,0,6.5-8.18c2.82-4,4-8.76,5.09-13.45.41-1.69.67-3.45,2.44-4.38C82.93,406.6,86.27,408.73,86.17,413.81Z"/><path class="cls-4" d="M391.8,435.92c-3.6-1.22-6.91-2.29-10.18-3.46a53.44,53.44,0,0,1-18.17-11.13c-2-1.82-2-3.65-.34-5.74,1.46-1.84,3.74-2.09,5.85-.71,4,2.63,7.93,5.56,12.18,7.77,3.56,1.85,7.55,2.88,11.37,4.21,3.54,1.24,4.63,4.27,2.34,7.21C394.18,434.92,392.88,435.29,391.8,435.92Z"/><path class="cls-4" d="M176.74,435.78c-3.49-1.21-7-2.34-10.47-3.65-6.42-2.42-11.93-6.39-17.32-10.53-1.47-1.12-1.58-4.22-.32-5.92a4.34,4.34,0,0,1,5.68-1.05c2.3,1.59,4.49,3.35,6.81,4.92,5.2,3.52,11.06,5.56,17,7.34,2.37.71,4,2.89,3.6,4.8A5.16,5.16,0,0,1,176.74,435.78Z"/><path class="cls-4" d="M20.4,437.17a4.23,4.23,0,0,1-4.1-5.6,38.08,38.08,0,0,1,17.94-22,16.7,16.7,0,0,1,2.54-1.47,4.77,4.77,0,0,1,6,2.58c.76,1.64-.51,4.24-2.5,5.52a87,87,0,0,0-7.28,5c-4.3,3.39-6.49,8.22-8.52,13.13A4.18,4.18,0,0,1,20.4,437.17Z"/><path class="cls-4" d="M105.49,388.59c0-2.71,1.82-4.41,4.6-4.59,6-.39,11.57-1.92,16.41-5.58a57,57,0,0,0,4.64-4c2.12-2,4.74-2.22,6.57-.42s1.67,4.07-.42,6.37a36.51,36.51,0,0,1-25.18,12.19,12.51,12.51,0,0,1-4.45-.26A3.11,3.11,0,0,1,105.49,388.59Z"/><path class="cls-4" d="M134.36,586.85a4.62,4.62,0,0,1,4.15,2.63c.73,1.55.92,3.31-.41,4.53a93.24,93.24,0,0,1-8.88,7.39c-5.16,3.63-11.12,5.12-17.36,5.54a10.16,10.16,0,0,1-2.87.22c-2.76-.66-3.77-2.19-3.5-4.86a4.53,4.53,0,0,1,4.46-3.92c6-.34,11.61-1.85,16.45-5.58,1.72-1.34,3.28-2.88,5-4.22A24.11,24.11,0,0,1,134.36,586.85Z"/><path class="cls-4" d="M362.38,269.13c-.67-6,1.58-11.33,3.58-16.72a4.54,4.54,0,0,1,6.29-2.74c2.21,1,3,3.44,1.88,6.09-2,4.75-3.68,9.6-3.2,14.84a62.73,62.73,0,0,0,1.55,8.47c.74,3.16-.34,5.46-3.16,6.25-2.31.64-4.66-1.12-5.29-4.17-.83-4-1.51-7.95-2.26-11.93Z"/><path class="cls-4" d="M156.14,249.38c3.05,0,4.79,2.48,3.84,5.45-1,3.18-2.21,6.31-3,9.55-1.21,5-.24,9.89,1.11,14.75.53,1.94.53,3.95-1.36,5.29s-3.62,1.3-5.57-.25a2.66,2.66,0,0,1-.91-1,45,45,0,0,1-2.42-14.36c0-5.84,1.64-11.15,3.89-16.42C152.63,250.21,153.94,249.28,156.14,249.38Z"/><path class="cls-4" d="M319.87,602.87c0-2.73,1.69-4.3,4.91-4.5a30.68,30.68,0,0,0,20.72-9.55c2-2,4.6-2.24,6.41-.63a4.32,4.32,0,0,1,0,6.53c-6.22,6.12-13.27,10.8-22.23,11.78a32.06,32.06,0,0,1-7,.35C320.79,606.62,319.69,605,319.87,602.87Z"/><path class="cls-4" d="M252.51,407.66c2.67.33,4,1.32,4.68,3.61.46,1.62-.73,3.7-2.54,4.91-2.79,1.88-5.6,3.76-8.19,5.91-3.61,3-5.66,7.09-7.21,11.45-1.39,3.92-5.38,5-7.81,1.89a4.72,4.72,0,0,1-.7-3.76,37.29,37.29,0,0,1,18.1-22.24C250,408.77,251.28,408.25,252.51,407.66Z"/><path class="cls-4" d="M370.08,463.26c3.41.46,5.18,2.82,4.28,5.82-1,3.27-2.18,6.48-3,9.78-1.08,4.26-.47,8.52.58,12.73a18.37,18.37,0,0,1,.67,3.49c.12,2.63-1.22,4.29-3.58,4.66a5,5,0,0,1-5-3.48c-1.51-5.65-2.59-11.47-1.6-17.23.78-4.62,2.57-9.1,4.26-13.51C367.11,464.49,368.92,464,370.08,463.26Z"/><path class="cls-4" d="M319.87,388.06c0-2.28,1.73-3.9,4.79-4.05a30.23,30.23,0,0,0,20.92-9.64c1.93-2,4.63-2.14,6.42-.47a4.44,4.44,0,0,1-.17,6.6c-6.24,6.12-13.33,10.72-22.31,11.64a33.23,33.23,0,0,1-6.59.38C320.79,392.3,319.74,390.67,319.87,388.06Z"/><path class="cls-4" d="M155.82,463.75c3.48,0,5.22,2.44,4.11,5.79-.85,2.58-1.74,5.15-2.57,7.73-1.55,4.81-1,9.59.22,14.36a18.32,18.32,0,0,1,.62,3.51c.1,2.64-1.26,4.27-3.64,4.6a5.11,5.11,0,0,1-4.87-3.36c-2.9-10.12-2.52-20.06,2-29.68C152.43,465,153.54,463.47,155.82,463.75Z"/><path class="cls-4" d="M197,613.35c-2.29.33-3.08-1.39-4.14-2.79-2.88-3.8-5.6-7.76-8.8-11.27-2.05-2.23-4.82-3.82-7.32-5.61-2.28-1.61-3-4.08-1.76-6.19a4.51,4.51,0,0,1,6.33-1.34,50,50,0,0,1,14.58,13c1.68,2.31,3.2,4.74,4.75,7.15a4.6,4.6,0,0,1,.37,5A3.72,3.72,0,0,1,197,613.35Z"/><path class="cls-4" d="M393.36,585.2a14.44,14.44,0,0,1,3.16,1.45c3.48,2.73,7.21,5.28,10.19,8.49a93,93,0,0,1,8.62,11.62,4.32,4.32,0,0,1-1.65,6.2,4.78,4.78,0,0,1-6.33-2.13c-2.5-4.27-5.17-8.42-8.93-11.67-2.38-2-5.05-3.75-7.6-5.58a4.63,4.63,0,0,1-1.81-5.25C389.75,586.57,390.93,585.12,393.36,585.2Z"/><path class="cls-4" d="M197.05,399c-2.3.31-3.11-1.37-4.17-2.79a133.45,133.45,0,0,0-8.34-10.82c-2.15-2.35-5-4.12-7.62-5.95-2.09-1.45-3.25-4.39-2.12-6.19a4.89,4.89,0,0,1,6.71-1.34c8.42,5,14.6,12.07,19.38,20.43a6.33,6.33,0,0,1,.07,4.58A3.33,3.33,0,0,1,197.05,399Z"/><path class="cls-4" d="M393.2,371a8.49,8.49,0,0,1,2.18.65c6.83,4.24,12.77,9.42,17.1,16.29.82,1.3,1.63,2.62,2.47,3.91,1.63,2.51,1.23,5.29-1,6.67s-5,.33-6.68-2.13a104.63,104.63,0,0,0-8.55-11.16c-2.2-2.37-5.18-4-7.84-5.94a4.68,4.68,0,0,1-1.88-5.42A4.3,4.3,0,0,1,393.2,371Z"/><path class="cls-4" d="M275.84,589.79c-7.6-.94-15.39-3.13-21.88-8.68-1.34-1.15-2.58-2.43-4-3.51-1.91-1.48-1.67-3.58-1-5.23a3.68,3.68,0,0,1,4.38-2.25,7.16,7.16,0,0,1,3.24,1.69c5.62,5.76,12.62,8.42,20.4,9.4,2.87.36,4.48,2.14,4.3,4.9C281.13,588.41,279.34,589.79,275.84,589.79Z"/><path class="cls-4" d="M61.86,375.44c-8.27-.94-16-3.42-22.46-8.88-1.14-.95-2.29-1.91-3.36-2.94-2.13-2.07-2.44-4.8-.81-6.47,2.08-2.13,4.73-2,7,.3A30.61,30.61,0,0,0,61,366.5a10,10,0,0,1,5,2.17,3.56,3.56,0,0,1,.52,4.47A4.14,4.14,0,0,1,61.86,375.44Z"/><path class="cls-4" d="M276.57,375.48c-8.3-1.05-16.17-3.22-22.71-8.83-1.28-1.1-2.59-2.19-3.79-3.38-2-2-2.18-4.28-.48-6.1s4.45-2,6.61-.17c1.71,1.46,3.39,3,5.17,4.35,3.87,3,8.46,4.22,13.18,5.07,1.17.21,2.39.24,3.53.55a4.53,4.53,0,0,1,3.18,4.89A4.09,4.09,0,0,1,276.57,375.48Z"/><path class="cls-4" d="M61.78,590.16c-3.85-1-7.78-1.75-11.54-3-5.31-1.76-9.76-5-13.84-8.8-2.33-2.15-2.9-5-1.34-6.67,2.15-2.36,4.74-2.35,7.31.25a30.36,30.36,0,0,0,14.68,8.21c1.77.43,3.56.77,5.36,1.05,3.07.47,4.69,2.22,4.49,5C66.73,588.51,65,589.79,61.78,590.16Z"/><path class="cls-4" d="M203.67,559.34c-2.93-.43-4.5-1.74-4.71-4.28s1.16-4.17,3.79-4.72c4.43-.93,9.05-1.48,12.79-4.3a49.28,49.28,0,0,0,6.52-6c1.53-1.65,4.32-2.42,6.24-1.2a4.25,4.25,0,0,1,1.06,6.13c-3.85,5.07-8.49,9.25-14.64,11.31C211.11,557.51,207.36,558.33,203.67,559.34Z"/><path class="cls-4" d="M126.49,463.53c-.11,1.39-.19,3.44-.47,5.46-.4,2.91-2.68,4.32-5.8,3.74-2-.37-3.61-2.92-3.12-5.33,1.51-7.44-.66-14-4.71-20.12-2.41-3.63-1.45-6.76,2.39-7.62a4,4,0,0,1,4.35,1.68C123.44,447.86,126.52,454.85,126.49,463.53Z"/><path class="cls-4" d="M126.66,248a64.8,64.8,0,0,1-1,7.08c-.71,2.94-2.44,3.91-5.19,3.33a4.2,4.2,0,0,1-3.42-5.2,24.76,24.76,0,0,0-4.55-19.75,12.48,12.48,0,0,1-1.11-2.26,4.07,4.07,0,0,1,1.86-5.39c2-1.08,4.81-.58,5.87,1.26,2.74,4.7,5.74,9.31,6.57,14.86C126.05,244,126.37,246.05,126.66,248Z"/><path class="cls-4" d="M341,248c-.19,2.43-.29,4.49-.54,6.52-.3,2.53-2.53,4.38-4.7,4-3-.49-4.76-2.47-4.23-5.29,1.45-7.59-.56-14.28-4.87-20.5-2.34-3.37-1.14-6.94,2.59-7.38,1.35-.15,3.48.53,4.16,1.55,3.14,4.7,5.87,9.69,6.93,15.35C340.66,244.25,340.77,246.3,341,248Z"/><path class="cls-4" d="M222.54,465a4,4,0,0,1-4.17,4.29,77.23,77.23,0,0,0-8.75.23c-4.82.66-8.81,3.38-12.78,6-2.43,1.59-5.13,1.41-6.39-.48-1.76-2.63-1.18-4.81,1.57-6.79,4.71-3.38,9.6-6.47,15.44-7.19a79.73,79.73,0,0,1,12-.26C221.25,460.86,222.52,462.9,222.54,465Z"/><path class="cls-4" d="M341,463.27a63.84,63.84,0,0,1-1,6.4c-.69,2.75-2.68,3.72-5.56,3.05a4.57,4.57,0,0,1-3-5c1.45-7.59-.64-14.28-4.78-20.59a5.9,5.9,0,0,1-.94-4.26,5.09,5.09,0,0,1,3-3,3.86,3.86,0,0,1,4.76,1.62,43.51,43.51,0,0,1,6.8,15.21C340.73,458.69,340.75,460.76,341,463.27Z"/><path class="cls-4" d="M193.88,262.53c-1.94-.25-3.25-1-3.93-2.7-.75-1.94-.82-3.87,1-5.18,5.73-4.1,11.62-8,19-8.25,2.94-.12,5.89-.1,8.82,0a3.86,3.86,0,0,1,3.77,4.23c-.08,2.67-1.6,4.26-4.14,4.32-2.84.06-5.71-.09-8.53.24-5,.59-9.12,3.35-13.21,6.09A17.06,17.06,0,0,1,193.88,262.53Z"/><path class="cls-4" d="M204.31,344.55c-3.38,0-5.22-1.35-5.34-3.54-.18-3.44,1.44-4.57,3.9-5,4.25-.81,8.64-1.43,12.23-4a74.81,74.81,0,0,0,7.46-6.56c1.49-1.43,4.26-2,5.88-.83s2.43,4.35.94,6c-2.86,3.08-5.75,6.29-9.18,8.66C215.32,342.55,209.54,344,204.31,344.55Z"/><path class="cls-4" d="M90.4,549.49c-6.5-.58-12.27,2.39-17.71,6.38a4.51,4.51,0,0,1-7.31-2.56c-.67-2.36.93-3.79,2.5-4.91,4.85-3.48,10-6.5,16-7.31A66.79,66.79,0,0,1,95,541c1.76.06,3.68,2.75,3.52,4.45a4.36,4.36,0,0,1-4.19,4.05C93.22,549.5,92.07,549.49,90.4,549.49Z"/><path class="cls-4" d="M304.75,549.49c-6.51-.57-12.22,2.33-17.46,6.3-1.71,1.3-4.91,1.39-6.38-.22s-2.15-4.35.36-6.28c4.92-3.77,10.07-7,16.37-8,3.7-.58,7.33-1.1,11.09-.44,2.23.39,4.35,2.35,4.22,4.47a4.38,4.38,0,0,1-4.4,4.14C307.41,549.51,306.27,549.49,304.75,549.49Z"/><path class="cls-4" d="M304.61,335.12c-6.45-.59-12.09,2.48-17.41,6.31-3.11,2.23-6.84.51-7.38-2.42a4.21,4.21,0,0,1,1.8-4.47c5.88-4.2,12-7.89,19.51-8,2.73,0,5.46-.1,8.18.05,1.8.09,3.71,2.54,3.64,4.32a4.66,4.66,0,0,1-4,4.19C307.64,335.17,306.35,335.12,304.61,335.12Z"/><path class="cls-4" d="M90.91,335.12c-7.07-.71-12.78,2.49-18.24,6.36-2.89,2.06-6.83.68-7.19-2.51a4.77,4.77,0,0,1,1.1-3.72c5.78-4.67,12.09-8.38,19.81-8.68,2.72-.11,5.45-.08,8.17,0a4.59,4.59,0,0,1,4,4.41,4.64,4.64,0,0,1-4.25,4.14Z"/><path class="cls-4" d="M114.15,507c-.24,2.44-1.24,3.81-3.34,4.45a3.68,3.68,0,0,1-4.49-1.6c-2-3-3.46-6.29-5.69-9s-5.32-5-7.8-7.65a7.38,7.38,0,0,1-2.15-4.29A3.68,3.68,0,0,1,94.13,485a9.34,9.34,0,0,1,5.06,1.94,47.88,47.88,0,0,1,14.34,18.19A15,15,0,0,1,114.15,507Z"/><path class="cls-4" d="M328.52,292.61a4.64,4.64,0,0,1-3.14,4.41,3.65,3.65,0,0,1-4.67-1.56c-1.84-2.63-3.14-5.67-5.16-8.13a84.59,84.59,0,0,0-8.51-8.74c-1.82-1.66-2.54-4.62-1.07-6.52a4.49,4.49,0,0,1,6.21-.6,48.4,48.4,0,0,1,15.72,19.26A13.5,13.5,0,0,1,328.52,292.61Z"/><path class="cls-4" d="M114.06,292.42a4.59,4.59,0,0,1-3.42,4.75,3.62,3.62,0,0,1-4.3-1.7c-1.51-2.27-2.44-5-4.15-7a109.34,109.34,0,0,0-9.35-9.78c-2.28-2.15-2.92-4.27-1.28-6.56,1.47-2,3.81-2.27,6.33-.49a42.51,42.51,0,0,1,12.86,14.08c1,1.78,1.93,3.58,2.85,5.39A7.82,7.82,0,0,1,114.06,292.42Z"/><path class="cls-4" d="M304.77,489.63c.33-2.29,1.16-3.62,3-4.46s3.08-.2,4.48.76c7,4.88,11.86,11.53,15.6,19.08a4.58,4.58,0,0,1-1.78,6.22,4.67,4.67,0,0,1-6-2.2c-2.12-4.14-4.27-8.24-7.74-11.46-1.73-1.61-3.62-3-5.29-4.71A20.71,20.71,0,0,1,304.77,489.63Z"/><path class="cls-4" d="M143.62,546.55c0-3,2.51-3.89,4.37-5.16a48,48,0,0,1,17-6.82,23.9,23.9,0,0,1,4.39-.49,4.29,4.29,0,1,1,.76,8.55c-4.88.87-9.78,1.7-14.17,4.17-2.19,1.24-4.16,2.9-6.44,3.9C146.33,552.1,143.68,550.09,143.62,546.55Z"/><path class="cls-4" d="M382.57,319.7c3.66,0,5.78,1.65,5.86,4.08.08,2.15-2,4.27-4.19,4.53a40.85,40.85,0,0,0-19.38,7.47c-2.19,1.58-4.44,1.36-5.86-.39a4.29,4.29,0,0,1,.55-6.23A40.75,40.75,0,0,1,376.44,321C378.76,320.47,381.09,320,382.57,319.7Z"/><path class="cls-4" d="M143.63,332.42c-.16-2,1.13-3.12,2.53-4.13a49.78,49.78,0,0,1,21.6-8.58c3.08-.51,5.31.72,6.11,3.41.64,2.13-1.36,4.83-3.65,5.16-4.7.68-9.38,1.59-13.63,3.85-1.91,1-3.66,2.31-5.5,3.46-1.58,1-3.17,1.78-5.11.74A4.28,4.28,0,0,1,143.63,332.42Z"/><path class="cls-4" d="M357.54,546.18a16,16,0,0,1,2.61-3.23,44.8,44.8,0,0,1,17.83-8,41,41,0,0,1,5.82-.85,4.52,4.52,0,0,1,4.65,4c.22,2.07-1.66,4.23-4,4.55-7.17,1-13.86,3.23-19.68,7.67-1.31,1-2.68,1.35-4.1.47s-3-2-2.58-4.21Z"/><path class="cls-4" d="M0,556.34c0-2.87-.07-5.58.05-8.28a3.22,3.22,0,0,1,1-1.91c2.2-2.15,4.56-4.14,6.7-6.34,1.42-1.46,4.76-2,6.38-.82a4.21,4.21,0,0,1,.82,6C12.11,548.93,6.45,554.39,0,556.34Z"/><path class="cls-4" d="M0,342c0-3.08,0-5.86,0-8.64a2.82,2.82,0,0,1,1-1.59c2.11-2,4.41-3.9,6.4-6.05C9,324,12.05,323.26,14,324.5a4.54,4.54,0,0,1,.83,6.31C11,335.8,6.38,339.84,0,342Z"/><path class="cls-4" d="M.07,469.35v-9c2.7-.08,5.39-.31,7.3,2.06a4,4,0,0,1,.25,4.75C5.83,470.47,2.82,469,.07,469.35Z"/><path class="cls-4" d="M.13,245.88c2.91.3,6-.32,7.47,2.67a5.6,5.6,0,0,1-.15,4.52c-1.64,2.83-4.64,1.73-7.32,1.86Z"/><path class="cls-4" d="M857.54,469.32c-6.84-.59-12.32,2.61-17.65,6.28-2.32,1.6-5.09,1.41-6.38-.58A4.68,4.68,0,0,1,835,468.3c4.86-3.29,9.78-6.27,15.63-7.28,2.28-.39,4.62-.48,6.93-.71Z"/><path class="cls-4" d="M857.54,255c-6.82-.55-12.3,2.62-17.63,6.27-2.27,1.55-5,1.37-6.24-.39-1.8-2.58-1.3-4.84,1.36-6.83,4.7-3.51,9.73-6.34,15.59-7.35,2.28-.39,4.61-.48,6.92-.7Z"/><path class="cls-4" d="M596.85,208.65c3.43,1.29,6.84,2.6,10.27,3.87a4.64,4.64,0,0,1,3.36,4.39,3.75,3.75,0,0,1-2.71,3.85,7,7,0,0,1-3.52.12c-7.23-2-14.19-4.72-20.37-9.11-1.42-1-2.79-2.08-4.18-3.12Z"/><path class="cls-4" d="M810.8,208.65c3.5,1.29,7,2.67,10.51,3.83a4.66,4.66,0,0,1,3.19,6.05c-.77,2-3.39,3.1-5.88,2.4-9-2.51-17.31-6.28-24.54-12.28Z"/><path class="cls-4" d="M512,208.65c-1.85,3.64-3.49,7.41-5.64,10.87a43.61,43.61,0,0,1-5.62,6.57,4.54,4.54,0,0,1-6.6.06c-1.57-1.53-1.34-4.37.39-6.27,3.12-3.42,6.27-6.83,8-11.23Z"/><path class="cls-4" d="M726.34,208.65c-1.91,3.69-3.61,7.51-5.79,11a41.91,41.91,0,0,1-5.47,6.4,4.55,4.55,0,0,1-6.59.09c-1.54-1.5-1.33-4.46.38-6.28,3.17-3.4,6.16-6.92,8-11.24Z"/><path class="cls-4" d="M674,208.65c-2.13,3.66-4.39,7.25-6.34,11-1.33,2.59-3.33,3.86-5.64,2.95a4.46,4.46,0,0,1-2.38-6.2c1.12-2.63,2.42-5.17,3.64-7.75Z"/><path class="cls-4" d="M459.65,208.65a32.81,32.81,0,0,0-6.06,10.74,4.76,4.76,0,0,1-5,3.4,4.13,4.13,0,0,1-3.68-4c0-1.71.85-3.46,1.52-5.1s1.67-3.39,2.53-5.08Z"/><path class="cls-4" d="M483.6,295.25c-1.78-.23-4.14-.62-6.52-.84-7.22-.7-13.74,1.54-20,4.89-2.54,1.37-4.28,1.11-5.86-.68a4.33,4.33,0,0,1,1.09-6.53c6.27-3.38,12.68-6.49,20.06-6.24,4.42.14,8.83.47,13.24.88,2,.18,3.85,2.89,3.61,4.82C488.93,293.92,487.12,295.25,483.6,295.25Z"/><path class="cls-4" d="M699.1,295.25c-3.6-.33-6.55-.65-9.5-.85-6.34-.42-12,1.71-17.48,4.64-1.57.84-3.07,1.73-5.12.67a4.3,4.3,0,0,1-.36-7.54c5.9-3.3,12-6.31,18.92-6.3,4.84,0,9.68.47,14.52.86,1.79.15,3.68,2.78,3.52,4.47C703.34,294,701.75,295.26,699.1,295.25Z"/><path class="cls-4" d="M474.38,508.57c-6.45-.08-12,2.54-17.63,5.18a6.78,6.78,0,0,1-4.75-.16,3.14,3.14,0,0,1-1.7-4,6,6,0,0,1,2.26-3.25,45.93,45.93,0,0,1,16-6.07,43.61,43.61,0,0,1,15.15.53,10.77,10.77,0,0,1,3.84,1.38c1.69,1.14,2,2.89,1.26,4.84a3.62,3.62,0,0,1-3.91,2.54c-1.76-.07-3.51-.26-5.27-.43S476.13,508.77,474.38,508.57Z"/><path class="cls-4" d="M699.73,509.62c-4.36-.35-7.52-.68-10.69-.85-6.42-.34-12.11,2-17.6,5a4.61,4.61,0,0,1-6.42-1.59,4.46,4.46,0,0,1,2.17-6c4.9-2.61,9.89-5.13,15.45-5.71a102.47,102.47,0,0,1,12.64-.09,26.55,26.55,0,0,1,3.92.67c2.66.44,4.58,2.41,4.4,4.51C703.37,508.22,701.63,509.62,699.73,509.62Z"/><path class="cls-4" d="M729.76,412.31c-1.33,4.25-2.44,8.58-4,12.72-2.31,5.9-6.17,10.83-10.53,15.41a4.46,4.46,0,0,1-6.44.24,4.53,4.53,0,0,1,.22-6.58,40.13,40.13,0,0,0,11.41-21.33,8.9,8.9,0,0,1,1.46-3.4c1.11-1.51,2.61-2.31,4.61-1.39A5.42,5.42,0,0,1,729.76,412.31Z"/><path class="cls-4" d="M514.93,413.81c-.86,2.73-2,6.68-3.36,10.56-2.15,6.15-6.12,11.15-10.57,15.78-1.43,1.49-3.15,2.35-5.32,1.31-3-1.45-3.54-4.54-1.31-7.11a101.67,101.67,0,0,0,6.49-8.18c2.83-4,4-8.76,5.1-13.45.41-1.69.67-3.45,2.43-4.38C511.69,406.6,515,408.73,514.93,413.81Z"/><path class="cls-4" d="M820.57,435.92c-3.6-1.22-6.91-2.29-10.19-3.46a53.63,53.63,0,0,1-18.17-11.13c-2-1.82-2-3.65-.34-5.74,1.47-1.84,3.75-2.09,5.86-.71,4,2.63,7.92,5.56,12.18,7.77,3.56,1.85,7.55,2.88,11.37,4.21,3.54,1.24,4.63,4.27,2.34,7.21C823,434.92,821.65,435.29,820.57,435.92Z"/><path class="cls-4" d="M605.51,435.78c-3.49-1.21-7-2.34-10.47-3.65-6.42-2.42-11.94-6.39-17.33-10.53-1.46-1.12-1.57-4.22-.31-5.92a4.32,4.32,0,0,1,5.67-1.05c2.31,1.59,4.5,3.35,6.82,4.92,5.2,3.52,11.05,5.56,17,7.34,2.37.71,4,2.89,3.6,4.8A5.17,5.17,0,0,1,605.51,435.78Z"/><path class="cls-4" d="M449.17,437.17a4.23,4.23,0,0,1-4.1-5.6,38.08,38.08,0,0,1,17.94-22,16.7,16.7,0,0,1,2.54-1.47,4.77,4.77,0,0,1,6,2.58c.75,1.64-.51,4.24-2.5,5.52-2.48,1.59-5,3.19-7.29,5-4.29,3.39-6.48,8.22-8.51,13.13A4.19,4.19,0,0,1,449.17,437.17Z"/><path class="cls-4" d="M534.26,388.59c0-2.71,1.82-4.41,4.59-4.59,6-.39,11.58-1.92,16.42-5.58a57,57,0,0,0,4.64-4c2.12-2,4.74-2.22,6.57-.42s1.67,4.07-.42,6.37a36.51,36.51,0,0,1-25.18,12.19,12.49,12.49,0,0,1-4.45-.26A3.11,3.11,0,0,1,534.26,388.59Z"/><path class="cls-4" d="M563.13,586.85a4.62,4.62,0,0,1,4.15,2.63c.73,1.55.92,3.31-.42,4.53A91.89,91.89,0,0,1,558,601.4c-5.16,3.63-11.12,5.12-17.37,5.54a10.09,10.09,0,0,1-2.86.22c-2.76-.66-3.77-2.19-3.5-4.86a4.53,4.53,0,0,1,4.46-3.92c6-.34,11.61-1.85,16.45-5.58,1.72-1.34,3.28-2.88,5-4.22A24.11,24.11,0,0,1,563.13,586.85Z"/><path class="cls-4" d="M791.15,269.13c-.67-6,1.58-11.33,3.58-16.72a4.54,4.54,0,0,1,6.29-2.74c2.21,1,3,3.44,1.88,6.09-2,4.75-3.68,9.6-3.2,14.84a62.73,62.73,0,0,0,1.55,8.47c.74,3.16-.34,5.46-3.16,6.25-2.31.64-4.66-1.12-5.29-4.17-.83-4-1.52-7.95-2.26-11.93Z"/><path class="cls-4" d="M584.91,249.38c3.05,0,4.78,2.48,3.83,5.45-1,3.18-2.2,6.31-3,9.55-1.21,5-.24,9.89,1.1,14.75.54,1.94.54,3.95-1.35,5.29s-3.63,1.3-5.57-.25a2.51,2.51,0,0,1-.91-1,44.49,44.49,0,0,1-2.42-14.36c0-5.84,1.64-11.15,3.89-16.42C581.4,250.21,582.71,249.28,584.91,249.38Z"/><path class="cls-4" d="M748.64,602.87c0-2.73,1.69-4.3,4.91-4.5a30.68,30.68,0,0,0,20.72-9.55c2-2,4.6-2.24,6.41-.63a4.32,4.32,0,0,1,0,6.53c-6.22,6.12-13.27,10.8-22.23,11.78a32.06,32.06,0,0,1-7,.35C749.56,606.62,748.46,605,748.64,602.87Z"/><path class="cls-4" d="M681.27,407.66c2.67.33,4,1.32,4.69,3.61.46,1.62-.73,3.7-2.54,4.91-2.79,1.88-5.6,3.76-8.19,5.91-3.61,3-5.66,7.09-7.21,11.45-1.39,3.92-5.38,5-7.81,1.89a4.77,4.77,0,0,1-.71-3.76,37.36,37.36,0,0,1,18.1-22.24C678.79,408.77,680.05,408.25,681.27,407.66Z"/><path class="cls-4" d="M798.84,463.26c3.42.46,5.19,2.82,4.29,5.82-1,3.27-2.18,6.48-3,9.78-1.08,4.26-.46,8.52.59,12.73a17.6,17.6,0,0,1,.66,3.49c.13,2.63-1.21,4.29-3.58,4.66-1.91.3-4.42-1.44-5-3.48-1.51-5.65-2.59-11.47-1.61-17.23.79-4.62,2.58-9.1,4.27-13.51C795.88,464.49,797.69,464,798.84,463.26Z"/><path class="cls-4" d="M748.64,388.06c0-2.28,1.73-3.9,4.79-4.05a30.25,30.25,0,0,0,20.92-9.64c1.93-2,4.63-2.14,6.42-.47a4.45,4.45,0,0,1-.17,6.6c-6.25,6.12-13.34,10.72-22.31,11.64a33.28,33.28,0,0,1-6.59.38C749.55,392.3,748.51,390.67,748.64,388.06Z"/><path class="cls-4" d="M584.59,463.75c3.47,0,5.22,2.44,4.11,5.79-.85,2.58-1.74,5.15-2.57,7.73-1.55,4.81-1,9.59.22,14.36a17.56,17.56,0,0,1,.61,3.51c.11,2.64-1.25,4.27-3.63,4.6a5.11,5.11,0,0,1-4.87-3.36c-2.9-10.12-2.52-20.06,2-29.68C581.2,465,582.31,463.47,584.59,463.75Z"/><path class="cls-4" d="M625.8,613.35c-2.3.33-3.08-1.39-4.14-2.79-2.88-3.8-5.6-7.76-8.8-11.27-2.05-2.23-4.82-3.82-7.33-5.61-2.27-1.61-3-4.08-1.75-6.19a4.51,4.51,0,0,1,6.33-1.34,50,50,0,0,1,14.58,13c1.68,2.31,3.2,4.74,4.74,7.15a4.58,4.58,0,0,1,.38,5A3.72,3.72,0,0,1,625.8,613.35Z"/><path class="cls-4" d="M822.12,585.2a14.31,14.31,0,0,1,3.17,1.45c3.48,2.73,7.21,5.28,10.19,8.49a93,93,0,0,1,8.62,11.62,4.32,4.32,0,0,1-1.65,6.2,4.79,4.79,0,0,1-6.34-2.13c-2.49-4.27-5.16-8.42-8.93-11.67-2.37-2-5-3.75-7.59-5.58a4.61,4.61,0,0,1-1.81-5.25C818.52,586.57,819.69,585.12,822.12,585.2Z"/><path class="cls-4" d="M625.82,399c-2.3.31-3.11-1.37-4.17-2.79a133.57,133.57,0,0,0-8.35-10.82c-2.15-2.35-5-4.12-7.61-5.95-2.09-1.45-3.25-4.39-2.12-6.19a4.89,4.89,0,0,1,6.71-1.34c8.41,5,14.59,12.07,19.37,20.43a6.33,6.33,0,0,1,.08,4.58A3.34,3.34,0,0,1,625.82,399Z"/><path class="cls-4" d="M822,371a8.49,8.49,0,0,1,2.18.65c6.82,4.24,12.77,9.42,17.1,16.29.82,1.3,1.63,2.62,2.47,3.91,1.63,2.51,1.22,5.29-1,6.67s-5,.33-6.69-2.13a104.54,104.54,0,0,0-8.54-11.16c-2.2-2.37-5.18-4-7.84-5.94a4.68,4.68,0,0,1-1.88-5.42A4.29,4.29,0,0,1,822,371Z"/><path class="cls-4" d="M704.61,589.79c-7.6-.94-15.39-3.13-21.88-8.68-1.35-1.15-2.58-2.43-4-3.51-1.9-1.48-1.67-3.58-1-5.23a3.68,3.68,0,0,1,4.38-2.25,7.21,7.21,0,0,1,3.24,1.69c5.61,5.76,12.61,8.42,20.4,9.4,2.86.36,4.47,2.14,4.3,4.9C709.9,588.41,708.11,589.79,704.61,589.79Z"/><path class="cls-4" d="M490.63,375.44c-8.27-.94-15.95-3.42-22.47-8.88-1.14-.95-2.28-1.91-3.35-2.94-2.13-2.07-2.44-4.8-.81-6.47,2.08-2.13,4.72-2,7,.3a30.58,30.58,0,0,0,18.73,9.05,10,10,0,0,1,5,2.17,3.56,3.56,0,0,1,.52,4.47A4.14,4.14,0,0,1,490.63,375.44Z"/><path class="cls-4" d="M705.34,375.48c-8.3-1.05-16.17-3.22-22.71-8.83-1.29-1.1-2.59-2.19-3.79-3.38-2-2-2.18-4.28-.48-6.1s4.44-2,6.61-.17c1.71,1.46,3.39,3,5.16,4.35,3.88,3,8.47,4.22,13.19,5.07,1.17.21,2.39.24,3.53.55a4.53,4.53,0,0,1,3.17,4.89A4.08,4.08,0,0,1,705.34,375.48Z"/><path class="cls-4" d="M490.55,590.16c-3.85-1-7.78-1.75-11.55-3-5.3-1.76-9.75-5-13.83-8.8-2.33-2.15-2.9-5-1.34-6.67,2.15-2.36,4.73-2.35,7.31.25a30.36,30.36,0,0,0,14.68,8.21c1.77.43,3.56.77,5.36,1.05,3.06.47,4.68,2.22,4.49,5C495.5,588.51,493.71,589.79,490.55,590.16Z"/><path class="cls-4" d="M632.44,559.34c-2.93-.43-4.5-1.74-4.71-4.28s1.16-4.17,3.79-4.72c4.43-.93,9-1.48,12.79-4.3a49.28,49.28,0,0,0,6.52-6c1.52-1.65,4.32-2.42,6.24-1.2a4.24,4.24,0,0,1,1,6.13c-3.84,5.07-8.48,9.25-14.63,11.31C639.87,557.51,636.13,558.33,632.44,559.34Z"/><path class="cls-4" d="M555.26,463.53c-.11,1.39-.19,3.44-.47,5.46-.41,2.91-2.68,4.32-5.8,3.74-2-.37-3.61-2.92-3.12-5.33,1.51-7.44-.66-14-4.71-20.12-2.41-3.63-1.45-6.76,2.39-7.62a4,4,0,0,1,4.35,1.68C552.2,447.86,555.29,454.85,555.26,463.53Z"/><path class="cls-4" d="M555.43,248a67.34,67.34,0,0,1-.95,7.08c-.71,2.94-2.45,3.91-5.19,3.33a4.19,4.19,0,0,1-3.42-5.2,24.8,24.8,0,0,0-4.55-19.75,12.48,12.48,0,0,1-1.11-2.26,4.07,4.07,0,0,1,1.86-5.39c2-1.08,4.81-.58,5.87,1.26,2.74,4.7,5.73,9.31,6.56,14.86C554.81,244,555.14,246.05,555.43,248Z"/><path class="cls-4" d="M769.72,248c-.2,2.43-.29,4.49-.54,6.52-.31,2.53-2.54,4.38-4.7,4-3.05-.49-4.77-2.47-4.23-5.29,1.44-7.59-.56-14.28-4.87-20.5-2.34-3.37-1.14-6.94,2.59-7.38,1.35-.15,3.48.53,4.16,1.55,3.14,4.7,5.87,9.69,6.93,15.35C769.43,244.25,769.53,246.3,769.72,248Z"/><path class="cls-4" d="M651.3,465a4,4,0,0,1-4.16,4.29,77.17,77.17,0,0,0-8.75.23c-4.83.66-8.81,3.38-12.78,6-2.44,1.59-5.13,1.41-6.39-.48-1.76-2.63-1.18-4.81,1.57-6.79,4.7-3.38,9.6-6.47,15.44-7.19a79.63,79.63,0,0,1,12-.26C650,460.86,651.29,462.9,651.3,465Z"/><path class="cls-4" d="M769.77,463.27a64.06,64.06,0,0,1-1,6.4c-.68,2.75-2.67,3.72-5.55,3.05a4.57,4.57,0,0,1-3-5c1.45-7.59-.65-14.28-4.78-20.59a6,6,0,0,1-1-4.26,5.08,5.08,0,0,1,3-3,3.86,3.86,0,0,1,4.76,1.62,43.31,43.31,0,0,1,6.79,15.21C769.49,458.69,769.52,460.76,769.77,463.27Z"/><path class="cls-4" d="M622.65,262.53c-1.94-.25-3.25-1-3.93-2.7-.75-1.94-.82-3.87,1-5.18,5.73-4.1,11.63-8,19-8.25,2.94-.12,5.88-.1,8.82,0a3.85,3.85,0,0,1,3.76,4.23c-.07,2.67-1.59,4.26-4.13,4.32-2.84.06-5.72-.09-8.53.24-5,.59-9.13,3.35-13.21,6.09A17.45,17.45,0,0,1,622.65,262.53Z"/><path class="cls-4" d="M633.08,344.55c-3.38,0-5.22-1.35-5.34-3.54-.18-3.44,1.44-4.57,3.9-5,4.25-.81,8.64-1.43,12.23-4a74.81,74.81,0,0,0,7.46-6.56c1.49-1.43,4.26-2,5.88-.83s2.43,4.35.94,6c-2.86,3.08-5.76,6.29-9.18,8.66C644.09,342.55,638.31,344,633.08,344.55Z"/><path class="cls-4" d="M519.17,549.49c-6.5-.58-12.27,2.39-17.71,6.38a4.51,4.51,0,0,1-7.31-2.56c-.67-2.36.92-3.79,2.5-4.91,4.85-3.48,10-6.5,16-7.31A66.78,66.78,0,0,1,523.8,541c1.76.06,3.68,2.75,3.52,4.45a4.36,4.36,0,0,1-4.2,4.05C522,549.5,520.84,549.49,519.17,549.49Z"/><path class="cls-4" d="M733.52,549.49c-6.51-.57-12.22,2.33-17.46,6.3-1.71,1.3-4.91,1.39-6.38-.22s-2.15-4.35.36-6.28c4.91-3.77,10.07-7,16.37-8,3.7-.58,7.33-1.1,11.09-.44,2.23.39,4.34,2.35,4.22,4.47a4.38,4.38,0,0,1-4.4,4.14C736.18,549.51,735,549.49,733.52,549.49Z"/><path class="cls-4" d="M733.38,335.12c-6.45-.59-12.09,2.48-17.42,6.31-3.1,2.23-6.84.51-7.37-2.42a4.21,4.21,0,0,1,1.8-4.47c5.87-4.2,12-7.89,19.51-8,2.72,0,5.46-.1,8.18.05,1.8.09,3.71,2.54,3.64,4.32a4.66,4.66,0,0,1-4,4.19C736.41,335.17,735.12,335.12,733.38,335.12Z"/><path class="cls-4" d="M519.67,335.12c-7.06-.71-12.77,2.49-18.23,6.36-2.89,2.06-6.83.68-7.2-2.51a4.85,4.85,0,0,1,1.1-3.72c5.79-4.67,12.09-8.38,19.82-8.68,2.72-.11,5.45-.08,8.17,0a4.28,4.28,0,0,1-.23,8.55Z"/><path class="cls-4" d="M542.91,507c-.23,2.44-1.23,3.81-3.33,4.45a3.68,3.68,0,0,1-4.49-1.6c-2-3-3.46-6.29-5.69-9s-5.32-5-7.8-7.65a7.39,7.39,0,0,1-2.16-4.29,3.69,3.69,0,0,1,3.45-3.89,9.34,9.34,0,0,1,5.07,1.94,47.88,47.88,0,0,1,14.34,18.19A13.27,13.27,0,0,1,542.91,507Z"/><path class="cls-4" d="M757.29,292.61a4.64,4.64,0,0,1-3.14,4.41,3.64,3.64,0,0,1-4.67-1.56c-1.84-2.63-3.14-5.67-5.16-8.13a85.64,85.64,0,0,0-8.51-8.74c-1.82-1.66-2.54-4.62-1.07-6.52a4.48,4.48,0,0,1,6.2-.6,48.42,48.42,0,0,1,15.73,19.26A13.5,13.5,0,0,1,757.29,292.61Z"/><path class="cls-4" d="M542.83,292.42a4.6,4.6,0,0,1-3.43,4.75,3.63,3.63,0,0,1-4.3-1.7c-1.5-2.27-2.43-5-4.15-7a107.84,107.84,0,0,0-9.34-9.78c-2.29-2.15-2.92-4.27-1.28-6.56,1.46-2,3.81-2.27,6.32-.49a42.54,42.54,0,0,1,12.87,14.08c1,1.78,1.93,3.58,2.85,5.39A7.82,7.82,0,0,1,542.83,292.42Z"/><path class="cls-4" d="M733.54,489.63c.32-2.29,1.16-3.62,3-4.46s3.08-.2,4.48.76c7,4.88,11.86,11.53,15.6,19.08a4.59,4.59,0,0,1-1.78,6.22,4.68,4.68,0,0,1-6-2.2c-2.11-4.14-4.27-8.24-7.73-11.46-1.73-1.61-3.63-3-5.29-4.71A20.71,20.71,0,0,1,733.54,489.63Z"/><path class="cls-4" d="M572.39,546.55c0-3,2.51-3.89,4.37-5.16a48.08,48.08,0,0,1,17-6.82,24.1,24.1,0,0,1,4.4-.49,4.29,4.29,0,1,1,.76,8.55c-4.88.87-9.78,1.7-14.17,4.17-2.19,1.24-4.17,2.9-6.44,3.9C575.1,552.1,572.45,550.09,572.39,546.55Z"/><path class="cls-4" d="M811.34,319.7c3.66,0,5.78,1.65,5.86,4.08.08,2.15-2,4.27-4.19,4.53a40.85,40.85,0,0,0-19.38,7.47c-2.19,1.58-4.45,1.36-5.86-.39a4.29,4.29,0,0,1,.55-6.23A40.75,40.75,0,0,1,805.21,321C807.53,320.47,809.86,320,811.34,319.7Z"/><path class="cls-4" d="M572.4,332.42c-.16-2,1.13-3.12,2.53-4.13a49.69,49.69,0,0,1,21.6-8.58c3.08-.51,5.31.72,6.11,3.41.64,2.13-1.36,4.83-3.65,5.16-4.71.68-9.38,1.59-13.63,3.85-1.91,1-3.66,2.31-5.5,3.46-1.59,1-3.17,1.78-5.11.74A4.28,4.28,0,0,1,572.4,332.42Z"/><path class="cls-4" d="M786.31,546.18a16,16,0,0,1,2.61-3.23,44.76,44.76,0,0,1,17.82-8,41,41,0,0,1,5.82-.85,4.52,4.52,0,0,1,4.66,4c.22,2.07-1.66,4.23-4,4.55-7.17,1-13.86,3.23-19.68,7.67-1.31,1-2.68,1.35-4.1.47s-3-2-2.58-4.21Z"/><path class="cls-4" d="M428.79,556.34c0-2.87-.07-5.58,0-8.28a3.29,3.29,0,0,1,1-1.91c2.2-2.15,4.55-4.14,6.7-6.34,1.42-1.46,4.76-2,6.38-.82a4.21,4.21,0,0,1,.82,6C440.88,548.93,435.22,554.39,428.79,556.34Z"/><path class="cls-4" d="M428.79,342c0-3.08-.06-5.86,0-8.64a2.8,2.8,0,0,1,1-1.59c2.12-2,4.42-3.9,6.41-6.05,1.61-1.73,4.62-2.5,6.53-1.26a4.53,4.53,0,0,1,.84,6.31C439.74,335.8,435.15,339.84,428.79,342Z"/><path class="cls-4" d="M428.84,469.35v-9c2.7-.08,5.39-.31,7.3,2.06a4,4,0,0,1,.25,4.75C434.6,470.47,431.59,469,428.84,469.35Z"/><path class="cls-4" d="M428.9,245.88c2.9.3,6-.32,7.47,2.67a5.56,5.56,0,0,1-.16,4.52c-1.64,2.83-4.63,1.73-7.31,1.86Z"/><path class="cls-4" d="M428.77,255c-6.84-.59-12.32,2.61-17.64,6.28-2.33,1.6-5.1,1.41-6.39-.58a4.67,4.67,0,0,1,1.47-6.71c4.86-3.29,9.78-6.27,15.63-7.29,2.28-.39,4.62-.48,6.93-.7Z"/><path class="cls-4" d="M428.77,40.59c-6.82-.55-12.3,2.63-17.62,6.27-2.28,1.56-5,1.37-6.24-.39-1.81-2.58-1.3-4.84,1.35-6.83,4.7-3.51,9.73-6.33,15.59-7.35,2.28-.39,4.61-.47,6.92-.7Z"/><path class="cls-4" d="M168.09-5.71c3.42,1.29,6.83,2.6,10.26,3.88a4.62,4.62,0,0,1,3.36,4.38A3.75,3.75,0,0,1,179,6.4a7,7,0,0,1-3.52.12c-7.22-2-14.19-4.72-20.37-9.1-1.42-1-2.78-2.08-4.17-3.13Z"/><path class="cls-4" d="M382-5.71c3.5,1.29,7,2.67,10.51,3.83a4.67,4.67,0,0,1,3.19,6.06c-.77,2-3.39,3.09-5.88,2.4-9-2.51-17.31-6.29-24.54-12.29Z"/><path class="cls-4" d="M83.19-5.71C81.34-2.07,79.7,1.7,77.55,5.16a43.12,43.12,0,0,1-5.62,6.57,4.54,4.54,0,0,1-6.6.06c-1.57-1.52-1.34-4.36.39-6.26,3.13-3.43,6.28-6.84,8-11.24Z"/><path class="cls-4" d="M297.57-5.71C295.66-2,294,1.8,291.78,5.32a42.47,42.47,0,0,1-5.47,6.41,4.56,4.56,0,0,1-6.59.08c-1.53-1.49-1.32-4.45.38-6.28,3.17-3.39,6.16-6.92,8-11.24Z"/><path class="cls-4" d="M428.77,128.05c-2.91.67-5.82,1.32-8.72,2-4,.95-6.69-.76-6.71-4.31a4.3,4.3,0,0,1,3.45-4.15c4-1,8-2.26,12-3.41Z"/><path class="cls-4" d="M428.77,342c-3.78.86-7.54,1.88-11.35,2.51a3.78,3.78,0,0,1-4.08-3.19,4.48,4.48,0,0,1,3.07-5.15c2.62-.7,5.3-1.18,7.91-1.9,1.52-.42,3-1.13,4.45-1.7Z"/><path class="cls-4" d="M245.26-5.71c-2.13,3.66-4.39,7.25-6.33,11-1.34,2.58-3.34,3.85-5.65,2.94A4.45,4.45,0,0,1,230.91,2c1.11-2.63,2.41-5.17,3.63-7.75Z"/><path class="cls-4" d="M30.89-5.71A32.65,32.65,0,0,0,24.82,5a4.75,4.75,0,0,1-5,3.4,4.13,4.13,0,0,1-3.68-4c0-1.7.85-3.45,1.52-5.1S19.32-4,20.17-5.71Z"/><path class="cls-4" d="M54.83,80.89c-1.78-.23-4.14-.61-6.51-.84-7.23-.69-13.75,1.54-20,4.9-2.54,1.36-4.29,1.1-5.87-.69a4.31,4.31,0,0,1,1.09-6.52c6.27-3.39,12.68-6.49,20.06-6.25,4.42.14,8.83.47,13.24.88,2,.19,3.86,2.89,3.61,4.82C60.16,79.56,58.35,80.89,54.83,80.89Z"/><path class="cls-4" d="M270.33,80.89c-3.6-.32-6.54-.65-9.49-.84-6.34-.42-12,1.7-17.49,4.63-1.57.84-3.06,1.73-5.12.67a4.3,4.3,0,0,1-.36-7.54c5.9-3.3,12-6.3,18.92-6.3,4.84,0,9.69.47,14.52.86,1.79.15,3.68,2.78,3.52,4.48C274.57,79.66,273,80.9,270.33,80.89Z"/><path class="cls-4" d="M45.61,294.22c-6.44-.08-12,2.54-17.63,5.17a6.78,6.78,0,0,1-4.75-.16,3.15,3.15,0,0,1-1.7-4A6.08,6.08,0,0,1,23.79,292a45.93,45.93,0,0,1,16-6.07,43.61,43.61,0,0,1,15.15.53,10.77,10.77,0,0,1,3.84,1.38c1.69,1.14,2,2.89,1.26,4.84a3.61,3.61,0,0,1-3.91,2.54c-1.76-.06-3.51-.25-5.27-.43S47.36,294.42,45.61,294.22Z"/><path class="cls-4" d="M271,295.26c-4.36-.35-7.52-.68-10.69-.85-6.42-.34-12.11,2-17.6,5a4.61,4.61,0,0,1-6.42-1.59,4.44,4.44,0,0,1,2.17-6c4.9-2.62,9.89-5.14,15.45-5.72a104.63,104.63,0,0,1,12.65-.09,28.18,28.18,0,0,1,3.92.67c2.66.45,4.58,2.41,4.39,4.51C274.6,293.87,272.86,295.26,271,295.26Z"/><path class="cls-4" d="M301,198c-1.34,4.25-2.45,8.58-4.06,12.72-2.31,5.91-6.17,10.84-10.52,15.41a4.47,4.47,0,0,1-6.45.24,4.53,4.53,0,0,1,.22-6.58,40.1,40.1,0,0,0,11.41-21.33,9.05,9.05,0,0,1,1.46-3.4c1.11-1.51,2.61-2.3,4.61-1.38A5.44,5.44,0,0,1,301,198Z"/><path class="cls-4" d="M86.17,199.46c-.87,2.72-2,6.67-3.37,10.55-2.15,6.16-6.12,11.15-10.57,15.78-1.43,1.49-3.15,2.36-5.32,1.32-3-1.46-3.54-4.55-1.31-7.12a101.8,101.8,0,0,0,6.5-8.18c2.82-4,4-8.75,5.09-13.45.41-1.69.67-3.45,2.44-4.38C82.93,192.24,86.27,194.37,86.17,199.46Z"/><path class="cls-4" d="M391.8,221.56c-3.6-1.22-6.91-2.29-10.18-3.46A53.28,53.28,0,0,1,363.45,207c-2-1.82-2-3.65-.34-5.74,1.46-1.83,3.74-2.09,5.85-.71,4,2.64,7.93,5.56,12.18,7.77,3.56,1.85,7.55,2.88,11.37,4.22,3.54,1.23,4.63,4.26,2.34,7.2C394.18,220.57,392.88,220.93,391.8,221.56Z"/><path class="cls-4" d="M176.74,221.42c-3.49-1.21-7-2.34-10.47-3.64-6.42-2.43-11.93-6.39-17.32-10.53-1.47-1.13-1.58-4.23-.32-5.92a4.31,4.31,0,0,1,5.68-1.05c2.3,1.58,4.49,3.34,6.81,4.91,5.2,3.52,11.06,5.56,17,7.34,2.37.71,4,2.89,3.6,4.8A5.15,5.15,0,0,1,176.74,221.42Z"/><path class="cls-4" d="M20.4,222.82a4.24,4.24,0,0,1-4.1-5.61,38.08,38.08,0,0,1,17.94-22,17.58,17.58,0,0,1,2.54-1.47,4.77,4.77,0,0,1,6,2.59c.76,1.64-.51,4.23-2.5,5.51a87,87,0,0,0-7.28,5c-4.3,3.4-6.49,8.22-8.52,13.13A4.19,4.19,0,0,1,20.4,222.82Z"/><path class="cls-4" d="M105.49,174.23c0-2.7,1.82-4.41,4.6-4.59,6-.39,11.57-1.92,16.41-5.58a57,57,0,0,0,4.64-4c2.12-2,4.74-2.21,6.57-.41s1.67,4.06-.42,6.36a36.47,36.47,0,0,1-25.18,12.19,12.51,12.51,0,0,1-4.45-.26A3.11,3.11,0,0,1,105.49,174.23Z"/><path class="cls-4" d="M134.36,372.5a4.61,4.61,0,0,1,4.15,2.62c.73,1.55.92,3.31-.41,4.53a93.24,93.24,0,0,1-8.88,7.39c-5.16,3.63-11.12,5.12-17.36,5.55a10.52,10.52,0,0,1-2.87.21c-2.76-.66-3.77-2.19-3.5-4.86A4.54,4.54,0,0,1,110,384c6-.34,11.61-1.85,16.45-5.58,1.72-1.33,3.28-2.88,5-4.22A22.84,22.84,0,0,1,134.36,372.5Z"/><path class="cls-4" d="M362.38,54.77c-.67-6,1.58-11.33,3.58-16.72a4.55,4.55,0,0,1,6.29-2.74c2.21,1,3,3.44,1.88,6.09-2,4.75-3.68,9.61-3.2,14.84a62.73,62.73,0,0,0,1.55,8.47c.74,3.16-.34,5.46-3.16,6.25-2.31.64-4.66-1.12-5.29-4.17-.83-4-1.51-8-2.26-11.93Z"/><path class="cls-4" d="M156.14,35c3.05,0,4.79,2.49,3.84,5.45-1,3.18-2.21,6.32-3,9.55-1.21,5-.24,9.89,1.11,14.75.53,1.94.53,4-1.36,5.29s-3.62,1.3-5.57-.25a2.66,2.66,0,0,1-.91-1,44.94,44.94,0,0,1-2.42-14.36c0-5.84,1.64-11.15,3.89-16.42C152.63,35.86,153.94,34.93,156.14,35Z"/><path class="cls-4" d="M319.87,388.51c0-2.72,1.69-4.29,4.91-4.5a30.63,30.63,0,0,0,20.72-9.55c2-2,4.6-2.24,6.41-.63a4.33,4.33,0,0,1,0,6.54c-6.22,6.11-13.27,10.79-22.23,11.77a32.06,32.06,0,0,1-7,.35C320.79,392.26,319.69,390.67,319.87,388.51Z"/><path class="cls-4" d="M252.51,193.31c2.67.33,4,1.31,4.68,3.61.46,1.62-.73,3.69-2.54,4.9-2.79,1.89-5.6,3.77-8.19,5.91-3.61,3-5.66,7.09-7.21,11.45-1.39,3.93-5.38,5-7.81,1.9a4.75,4.75,0,0,1-.7-3.77,37.31,37.31,0,0,1,18.1-22.24C250,194.41,251.28,193.89,252.51,193.31Z"/><path class="cls-4" d="M370.08,248.9c3.41.47,5.18,2.82,4.28,5.82-1,3.27-2.18,6.48-3,9.78-1.08,4.27-.47,8.52.58,12.73a18.37,18.37,0,0,1,.67,3.49c.12,2.64-1.22,4.29-3.58,4.66a5,5,0,0,1-5-3.48c-1.51-5.65-2.59-11.46-1.6-17.23.78-4.62,2.57-9.1,4.26-13.51C367.11,250.13,368.92,249.64,370.08,248.9Z"/><path class="cls-4" d="M319.87,173.7c0-2.27,1.73-3.9,4.79-4A30.22,30.22,0,0,0,345.58,160c1.93-2,4.63-2.14,6.42-.48a4.44,4.44,0,0,1-.17,6.6c-6.24,6.12-13.33,10.73-22.31,11.64a33.23,33.23,0,0,1-6.59.38C320.79,178,319.74,176.31,319.87,173.7Z"/><path class="cls-4" d="M155.82,249.39c3.48,0,5.22,2.44,4.11,5.79-.85,2.58-1.74,5.15-2.57,7.73-1.55,4.81-1,9.59.22,14.37a18.36,18.36,0,0,1,.62,3.5c.1,2.64-1.26,4.27-3.64,4.61a5.14,5.14,0,0,1-4.87-3.36c-2.9-10.13-2.52-20.06,2-29.69C152.43,250.68,153.54,249.11,155.82,249.39Z"/><path class="cls-4" d="M197,399c-2.29.33-3.08-1.39-4.14-2.79-2.88-3.8-5.6-7.76-8.8-11.26-2.05-2.24-4.82-3.83-7.32-5.61-2.28-1.62-3-4.08-1.76-6.19a4.5,4.5,0,0,1,6.33-1.34,50,50,0,0,1,14.58,13c1.68,2.31,3.2,4.74,4.75,7.15a4.6,4.6,0,0,1,.37,5A3.72,3.72,0,0,1,197,399Z"/><path class="cls-4" d="M393.36,370.84a14.92,14.92,0,0,1,3.16,1.45c3.48,2.74,7.21,5.28,10.19,8.49a93,93,0,0,1,8.62,11.62,4.33,4.33,0,0,1-1.65,6.21,4.79,4.79,0,0,1-6.33-2.14c-2.5-4.26-5.17-8.42-8.93-11.67-2.38-2-5.05-3.74-7.6-5.58A4.62,4.62,0,0,1,389,374C389.75,372.21,390.93,370.76,393.36,370.84Z"/><path class="cls-4" d="M197.05,184.63c-2.3.31-3.11-1.37-4.17-2.78A133.61,133.61,0,0,0,184.54,171c-2.15-2.35-5-4.12-7.62-6-2.09-1.45-3.25-4.39-2.12-6.18a4.89,4.89,0,0,1,6.71-1.35c8.42,5,14.6,12.08,19.38,20.43a6.35,6.35,0,0,1,.07,4.59A3.34,3.34,0,0,1,197.05,184.63Z"/><path class="cls-4" d="M393.2,156.62a8.1,8.1,0,0,1,2.18.64c6.83,4.24,12.77,9.42,17.1,16.29.82,1.3,1.63,2.62,2.47,3.92,1.63,2.5,1.23,5.28-1,6.66s-5,.33-6.68-2.13a103.51,103.51,0,0,0-8.55-11.15c-2.2-2.37-5.18-4-7.84-5.95a4.68,4.68,0,0,1-1.88-5.42A4.28,4.28,0,0,1,393.2,156.62Z"/><path class="cls-4" d="M275.84,375.43c-7.6-.94-15.39-3.12-21.88-8.68-1.34-1.14-2.58-2.42-4-3.5-1.91-1.48-1.67-3.59-1-5.24a3.69,3.69,0,0,1,4.38-2.25,7.08,7.08,0,0,1,3.24,1.7c5.62,5.75,12.62,8.41,20.4,9.39,2.87.36,4.48,2.14,4.3,4.91C281.13,374.06,279.34,375.43,275.84,375.43Z"/><path class="cls-4" d="M61.86,161.08c-8.27-.94-16-3.42-22.46-8.87-1.14-1-2.29-1.91-3.36-3-2.13-2.07-2.44-4.79-.81-6.46,2.08-2.13,4.73-2,7,.29A30.67,30.67,0,0,0,61,152.15a10,10,0,0,1,5,2.16,3.56,3.56,0,0,1,.52,4.47A4.14,4.14,0,0,1,61.86,161.08Z"/><path class="cls-4" d="M276.57,161.12c-8.3-1.05-16.17-3.22-22.71-8.83-1.28-1.1-2.59-2.19-3.79-3.38-2-2-2.18-4.28-.48-6.1s4.45-2,6.61-.17c1.71,1.46,3.39,3,5.17,4.35,3.87,3,8.46,4.22,13.18,5.07,1.17.21,2.39.24,3.53.56a4.53,4.53,0,0,1,3.18,4.88A4.09,4.09,0,0,1,276.57,161.12Z"/><path class="cls-4" d="M61.78,375.81c-3.85-1-7.78-1.76-11.54-3-5.31-1.76-9.76-5-13.84-8.8-2.33-2.16-2.9-5-1.34-6.68,2.15-2.35,4.74-2.35,7.31.25a30.36,30.36,0,0,0,14.68,8.21c1.77.43,3.56.77,5.36,1,3.07.48,4.69,2.22,4.49,5C66.73,374.15,65,375.44,61.78,375.81Z"/><path class="cls-4" d="M203.67,345c-2.93-.42-4.5-1.74-4.71-4.28s1.16-4.16,3.79-4.72c4.43-.92,9.05-1.48,12.79-4.3a49.2,49.2,0,0,0,6.52-6c1.53-1.66,4.32-2.42,6.24-1.21a4.25,4.25,0,0,1,1.06,6.13c-3.85,5.07-8.49,9.25-14.64,11.32C211.11,343.15,207.36,344,203.67,345Z"/><path class="cls-4" d="M126.49,249.17c-.11,1.39-.19,3.44-.47,5.47-.4,2.9-2.68,4.31-5.8,3.73-2-.37-3.61-2.92-3.12-5.32,1.51-7.45-.66-14-4.71-20.13-2.41-3.63-1.45-6.76,2.39-7.62a4,4,0,0,1,4.35,1.68C123.44,233.51,126.52,240.49,126.49,249.17Z"/><path class="cls-4" d="M126.66,33.62a64.61,64.61,0,0,1-1,7.07c-.71,3-2.44,3.91-5.19,3.33a4.2,4.2,0,0,1-3.42-5.2,24.75,24.75,0,0,0-4.55-19.74,12.91,12.91,0,0,1-1.11-2.27,4.06,4.06,0,0,1,1.86-5.38c2-1.09,4.81-.59,5.87,1.25,2.74,4.7,5.74,9.31,6.57,14.86C126.05,29.62,126.37,31.7,126.66,33.62Z"/><path class="cls-4" d="M341,33.6c-.19,2.44-.29,4.49-.54,6.52-.3,2.53-2.53,4.38-4.7,4-3-.49-4.76-2.46-4.23-5.28,1.45-7.59-.56-14.29-4.87-20.51-2.34-3.37-1.14-6.94,2.59-7.37,1.35-.16,3.48.52,4.16,1.54,3.14,4.71,5.87,9.69,6.93,15.36C340.66,29.89,340.77,31.94,341,33.6Z"/><path class="cls-4" d="M222.54,250.67a4.05,4.05,0,0,1-4.17,4.29,75,75,0,0,0-8.75.23c-4.82.65-8.81,3.38-12.78,6-2.43,1.6-5.13,1.41-6.39-.48-1.76-2.63-1.18-4.81,1.57-6.79,4.71-3.37,9.6-6.47,15.44-7.19a82.46,82.46,0,0,1,12-.26C221.25,246.51,222.52,248.54,222.54,250.67Z"/><path class="cls-4" d="M341,248.91a63.4,63.4,0,0,1-1,6.4c-.69,2.75-2.68,3.72-5.56,3.05a4.57,4.57,0,0,1-3-5c1.45-7.59-.64-14.28-4.78-20.59a5.9,5.9,0,0,1-.94-4.26,5.09,5.09,0,0,1,3-3,3.86,3.86,0,0,1,4.76,1.62,43.51,43.51,0,0,1,6.8,15.21C340.73,244.34,340.75,246.41,341,248.91Z"/><path class="cls-4" d="M193.88,48.18c-1.94-.26-3.25-1-3.93-2.71-.75-1.94-.82-3.87,1-5.17,5.73-4.11,11.62-8,19-8.26,2.94-.12,5.89-.1,8.82,0a3.85,3.85,0,0,1,3.77,4.22c-.08,2.67-1.6,4.27-4.14,4.32-2.84.06-5.71-.08-8.53.25-5,.59-9.12,3.34-13.21,6.09A18,18,0,0,1,193.88,48.18Z"/><path class="cls-4" d="M204.31,130.2c-3.38,0-5.22-1.35-5.34-3.55-.18-3.44,1.44-4.57,3.9-5,4.25-.81,8.64-1.43,12.23-4a73.55,73.55,0,0,0,7.46-6.56c1.49-1.43,4.26-2,5.88-.83s2.43,4.35.94,6c-2.86,3.09-5.75,6.29-9.18,8.66C215.32,128.19,209.54,129.6,204.31,130.2Z"/><path class="cls-4" d="M90.4,335.13c-6.5-.58-12.27,2.39-17.71,6.38A4.51,4.51,0,0,1,65.38,339c-.67-2.36.93-3.78,2.5-4.91,4.85-3.47,10-6.5,16-7.31A66.79,66.79,0,0,1,95,326.62c1.76.06,3.68,2.76,3.52,4.45a4.37,4.37,0,0,1-4.19,4.06Z"/><path class="cls-4" d="M304.75,335.13c-6.51-.56-12.22,2.33-17.46,6.31-1.71,1.29-4.91,1.38-6.38-.23s-2.15-4.35.36-6.28c4.92-3.77,10.07-7,16.37-8,3.7-.58,7.33-1.1,11.09-.44,2.23.39,4.35,2.36,4.22,4.47a4.38,4.38,0,0,1-4.4,4.14C307.41,335.15,306.27,335.13,304.75,335.13Z"/><path class="cls-4" d="M304.61,120.76c-6.45-.59-12.09,2.48-17.41,6.31-3.11,2.24-6.84.51-7.38-2.42a4.21,4.21,0,0,1,1.8-4.47c5.88-4.2,12-7.89,19.51-8,2.73,0,5.46-.09,8.18,0,1.8.09,3.71,2.54,3.64,4.33a4.66,4.66,0,0,1-4,4.18C307.64,120.81,306.35,120.76,304.61,120.76Z"/><path class="cls-4" d="M90.91,120.76c-7.07-.71-12.78,2.49-18.24,6.37-2.89,2.05-6.83.68-7.19-2.52-.14-1.21.25-3,1.1-3.71,5.78-4.68,12.09-8.38,19.81-8.69,2.72-.11,5.45-.08,8.17,0a4.57,4.57,0,0,1,4,4.4,4.63,4.63,0,0,1-4.25,4.14Z"/><path class="cls-4" d="M114.15,292.64c-.24,2.44-1.24,3.81-3.34,4.44a3.68,3.68,0,0,1-4.49-1.6c-2-3-3.46-6.29-5.69-9s-5.32-5-7.8-7.66a7.38,7.38,0,0,1-2.15-4.28,3.68,3.68,0,0,1,3.45-3.9,9.41,9.41,0,0,1,5.06,1.94,47.88,47.88,0,0,1,14.34,18.19A14.54,14.54,0,0,1,114.15,292.64Z"/><path class="cls-4" d="M328.52,78.25a4.66,4.66,0,0,1-3.14,4.42,3.67,3.67,0,0,1-4.67-1.57c-1.84-2.63-3.14-5.67-5.16-8.13A85.61,85.61,0,0,0,307,64.23c-1.82-1.66-2.54-4.62-1.07-6.51a4.48,4.48,0,0,1,6.21-.61A48.36,48.36,0,0,1,327.9,76.38,13.43,13.43,0,0,1,328.52,78.25Z"/><path class="cls-4" d="M114.06,78.07a4.58,4.58,0,0,1-3.42,4.74,3.61,3.61,0,0,1-4.3-1.7c-1.51-2.26-2.44-5-4.15-7a110.71,110.71,0,0,0-9.35-9.78c-2.28-2.15-2.92-4.27-1.28-6.55,1.47-2,3.81-2.28,6.33-.5a42.45,42.45,0,0,1,12.86,14.09c1,1.77,1.93,3.57,2.85,5.38A8.14,8.14,0,0,1,114.06,78.07Z"/><path class="cls-4" d="M304.77,275.27c.33-2.29,1.16-3.62,3-4.46s3.08-.2,4.48.77c7,4.87,11.86,11.52,15.6,19.07a4.58,4.58,0,0,1-1.78,6.22,4.67,4.67,0,0,1-6-2.19c-2.12-4.15-4.27-8.25-7.74-11.47-1.73-1.6-3.62-3-5.29-4.71A20.71,20.71,0,0,1,304.77,275.27Z"/><path class="cls-4" d="M143.62,332.19c0-3,2.51-3.89,4.37-5.16a48,48,0,0,1,17-6.82,23.9,23.9,0,0,1,4.39-.49,4.29,4.29,0,1,1,.76,8.55c-4.88.87-9.78,1.7-14.17,4.18-2.19,1.23-4.16,2.89-6.44,3.89C146.33,337.74,143.68,335.74,143.62,332.19Z"/><path class="cls-4" d="M382.57,105.34c3.66,0,5.78,1.65,5.86,4.09.08,2.15-2,4.27-4.19,4.52a40.85,40.85,0,0,0-19.38,7.47c-2.19,1.58-4.44,1.36-5.86-.39a4.29,4.29,0,0,1,.55-6.23,40.73,40.73,0,0,1,16.89-8.17C378.76,106.11,381.09,105.65,382.57,105.34Z"/><path class="cls-4" d="M143.63,118.07c-.16-2,1.13-3.13,2.53-4.14a49.78,49.78,0,0,1,21.6-8.58c3.08-.5,5.31.72,6.11,3.41.64,2.13-1.36,4.84-3.65,5.16-4.7.68-9.38,1.59-13.63,3.85-1.91,1-3.66,2.31-5.5,3.46-1.58,1-3.17,1.78-5.11.75A4.3,4.3,0,0,1,143.63,118.07Z"/><path class="cls-4" d="M357.54,331.82a16.33,16.33,0,0,1,2.61-3.23,44.8,44.8,0,0,1,17.83-8,39.62,39.62,0,0,1,5.82-.84,4.51,4.51,0,0,1,4.65,4c.22,2.06-1.66,4.22-4,4.54-7.17,1-13.86,3.23-19.68,7.67-1.31,1-2.68,1.35-4.1.47s-3-2-2.58-4.21Z"/><path class="cls-4" d="M0,342c0-2.87-.07-5.58.05-8.28a3.25,3.25,0,0,1,1-1.91c2.2-2.15,4.56-4.14,6.7-6.34,1.42-1.46,4.76-2,6.38-.82a4.22,4.22,0,0,1,.82,6C12.11,334.57,6.45,340,0,342Z"/><path class="cls-4" d="M0,127.68c0-3.08,0-5.86,0-8.64a2.85,2.85,0,0,1,1-1.59c2.11-2,4.41-3.9,6.4-6,1.61-1.74,4.62-2.51,6.54-1.26a4.54,4.54,0,0,1,.83,6.31C11,121.44,6.38,125.48,0,127.68Z"/><path class="cls-4" d="M.07,255v-9c2.7-.08,5.39-.3,7.3,2.06a4,4,0,0,1,.25,4.75C5.83,256.11,2.82,254.6.07,255Z"/><path class="cls-4" d="M.13,31.52c2.91.3,6-.31,7.47,2.67a5.6,5.6,0,0,1-.15,4.52C5.81,41.54,2.81,40.44.13,40.58Z"/><path class="cls-4" d="M857.54,255c-6.84-.59-12.32,2.61-17.65,6.28-2.32,1.6-5.09,1.41-6.38-.58A4.67,4.67,0,0,1,835,254c4.86-3.29,9.78-6.27,15.63-7.29,2.28-.39,4.62-.48,6.93-.7Z"/><path class="cls-4" d="M857.54,40.59c-6.82-.55-12.3,2.63-17.63,6.27-2.27,1.56-5,1.37-6.24-.39-1.8-2.58-1.3-4.84,1.36-6.83,4.7-3.51,9.73-6.33,15.59-7.35,2.28-.39,4.61-.47,6.92-.7Z"/><path class="cls-4" d="M596.85-5.71c3.43,1.29,6.84,2.6,10.27,3.88a4.62,4.62,0,0,1,3.36,4.38,3.75,3.75,0,0,1-2.71,3.85,7,7,0,0,1-3.52.12c-7.23-2-14.19-4.72-20.37-9.1-1.42-1-2.79-2.08-4.18-3.13Z"/><path class="cls-4" d="M810.8-5.71c3.5,1.29,7,2.67,10.51,3.83a4.67,4.67,0,0,1,3.19,6.06c-.77,2-3.39,3.09-5.88,2.4-9-2.51-17.31-6.29-24.54-12.29Z"/><path class="cls-4" d="M512-5.71c-1.85,3.64-3.49,7.41-5.64,10.87a43.12,43.12,0,0,1-5.62,6.57,4.54,4.54,0,0,1-6.6.06c-1.57-1.52-1.34-4.36.39-6.26,3.12-3.43,6.27-6.84,8-11.24Z"/><path class="cls-4" d="M726.34-5.71c-1.91,3.69-3.61,7.51-5.79,11a42.47,42.47,0,0,1-5.47,6.41,4.56,4.56,0,0,1-6.59.08c-1.54-1.49-1.33-4.45.38-6.28,3.17-3.39,6.16-6.92,8-11.24Z"/><path class="cls-4" d="M674-5.71c-2.13,3.66-4.39,7.25-6.34,11-1.33,2.58-3.33,3.85-5.64,2.94A4.46,4.46,0,0,1,659.67,2c1.12-2.63,2.42-5.17,3.64-7.75Z"/><path class="cls-4" d="M459.65-5.71A32.81,32.81,0,0,0,453.59,5a4.75,4.75,0,0,1-5,3.4,4.13,4.13,0,0,1-3.68-4c0-1.7.85-3.45,1.52-5.1s1.67-3.39,2.53-5.08Z"/><path class="cls-4" d="M483.6,80.89c-1.78-.23-4.14-.61-6.52-.84-7.22-.69-13.74,1.54-20,4.9-2.54,1.36-4.28,1.1-5.86-.69a4.31,4.31,0,0,1,1.09-6.52c6.27-3.39,12.68-6.49,20.06-6.25,4.42.14,8.83.47,13.24.88,2,.19,3.85,2.89,3.61,4.82C488.93,79.56,487.12,80.89,483.6,80.89Z"/><path class="cls-4" d="M699.1,80.89c-3.6-.32-6.55-.65-9.5-.84-6.34-.42-12,1.7-17.48,4.63-1.57.84-3.07,1.73-5.12.67a4.3,4.3,0,0,1-.36-7.54c5.9-3.3,12-6.3,18.92-6.3,4.84,0,9.68.47,14.52.86,1.79.15,3.68,2.78,3.52,4.48C703.34,79.66,701.75,80.9,699.1,80.89Z"/><path class="cls-4" d="M474.38,294.22c-6.45-.08-12,2.54-17.63,5.17a6.78,6.78,0,0,1-4.75-.16,3.14,3.14,0,0,1-1.7-4,6.08,6.08,0,0,1,2.26-3.25,45.93,45.93,0,0,1,16-6.07,43.61,43.61,0,0,1,15.15.53,10.77,10.77,0,0,1,3.84,1.38c1.69,1.14,2,2.89,1.26,4.84a3.61,3.61,0,0,1-3.91,2.54c-1.76-.06-3.51-.25-5.27-.43S476.13,294.42,474.38,294.22Z"/><path class="cls-4" d="M699.73,295.26c-4.36-.35-7.52-.68-10.69-.85-6.42-.34-12.11,2-17.6,5a4.61,4.61,0,0,1-6.42-1.59,4.44,4.44,0,0,1,2.17-6c4.9-2.62,9.89-5.14,15.45-5.72a104.47,104.47,0,0,1,12.64-.09,27.93,27.93,0,0,1,3.92.67c2.66.45,4.58,2.41,4.4,4.51C703.37,293.87,701.63,295.26,699.73,295.26Z"/><path class="cls-4" d="M729.76,198c-1.33,4.25-2.44,8.58-4,12.72-2.31,5.91-6.17,10.84-10.53,15.41a4.46,4.46,0,0,1-6.44.24,4.53,4.53,0,0,1,.22-6.58,40.1,40.1,0,0,0,11.41-21.33,8.9,8.9,0,0,1,1.46-3.4c1.11-1.51,2.61-2.3,4.61-1.38A5.41,5.41,0,0,1,729.76,198Z"/><path class="cls-4" d="M514.93,199.46c-.86,2.72-2,6.67-3.36,10.55-2.15,6.16-6.12,11.15-10.57,15.78-1.43,1.49-3.15,2.36-5.32,1.32-3-1.46-3.54-4.55-1.31-7.12a101.67,101.67,0,0,0,6.49-8.18c2.83-4,4-8.75,5.1-13.45.41-1.69.67-3.45,2.43-4.38C511.69,192.24,515,194.37,514.93,199.46Z"/><path class="cls-4" d="M820.57,221.56c-3.6-1.22-6.91-2.29-10.19-3.46A53.47,53.47,0,0,1,792.21,207c-2-1.82-2-3.65-.34-5.74a4.17,4.17,0,0,1,5.86-.71c4,2.64,7.92,5.56,12.18,7.77,3.56,1.85,7.55,2.88,11.37,4.22,3.54,1.23,4.63,4.26,2.34,7.2C823,220.57,821.65,220.93,820.57,221.56Z"/><path class="cls-4" d="M605.51,221.42c-3.49-1.21-7-2.34-10.47-3.64-6.42-2.43-11.94-6.39-17.33-10.53-1.46-1.13-1.57-4.23-.31-5.92a4.3,4.3,0,0,1,5.67-1.05c2.31,1.58,4.5,3.34,6.82,4.91,5.2,3.52,11.05,5.56,17,7.34,2.37.71,4,2.89,3.6,4.8A5.16,5.16,0,0,1,605.51,221.42Z"/><path class="cls-4" d="M449.17,222.82a4.24,4.24,0,0,1-4.1-5.61,38.08,38.08,0,0,1,17.94-22,17.58,17.58,0,0,1,2.54-1.47,4.77,4.77,0,0,1,6,2.59c.75,1.64-.51,4.23-2.5,5.51-2.48,1.59-5,3.19-7.29,5-4.29,3.4-6.48,8.22-8.51,13.13A4.2,4.2,0,0,1,449.17,222.82Z"/><path class="cls-4" d="M534.26,174.23c0-2.7,1.82-4.41,4.59-4.59,6-.39,11.58-1.92,16.42-5.58a57,57,0,0,0,4.64-4c2.12-2,4.74-2.21,6.57-.41s1.67,4.06-.42,6.36a36.47,36.47,0,0,1-25.18,12.19,12.49,12.49,0,0,1-4.45-.26A3.1,3.1,0,0,1,534.26,174.23Z"/><path class="cls-4" d="M563.13,372.5a4.61,4.61,0,0,1,4.15,2.62c.73,1.55.92,3.31-.42,4.53A91.89,91.89,0,0,1,558,387c-5.16,3.63-11.12,5.12-17.37,5.55a10.45,10.45,0,0,1-2.86.21c-2.76-.66-3.77-2.19-3.5-4.86a4.54,4.54,0,0,1,4.46-3.92c6-.34,11.61-1.85,16.45-5.58,1.72-1.33,3.28-2.88,5-4.22A22.84,22.84,0,0,1,563.13,372.5Z"/><path class="cls-4" d="M791.15,54.77c-.67-6,1.58-11.33,3.58-16.72A4.54,4.54,0,0,1,801,35.31c2.21,1,3,3.44,1.88,6.09-2,4.75-3.68,9.61-3.2,14.84a62.73,62.73,0,0,0,1.55,8.47c.74,3.16-.34,5.46-3.16,6.25-2.31.64-4.66-1.12-5.29-4.17-.83-4-1.52-8-2.26-11.93Z"/><path class="cls-4" d="M584.91,35c3.05,0,4.78,2.49,3.83,5.45-1,3.18-2.2,6.32-3,9.55-1.21,5-.24,9.89,1.1,14.75.54,1.94.54,4-1.35,5.29s-3.63,1.3-5.57-.25a2.51,2.51,0,0,1-.91-1,44.4,44.4,0,0,1-2.42-14.36c0-5.84,1.64-11.15,3.89-16.42C581.4,35.86,582.71,34.93,584.91,35Z"/><path class="cls-4" d="M748.64,388.51c0-2.72,1.69-4.29,4.91-4.5a30.63,30.63,0,0,0,20.72-9.55c2-2,4.6-2.24,6.41-.63a4.33,4.33,0,0,1,0,6.54c-6.22,6.11-13.27,10.79-22.23,11.77a32.06,32.06,0,0,1-7,.35C749.56,392.26,748.46,390.67,748.64,388.51Z"/><path class="cls-4" d="M681.27,193.31c2.67.33,4,1.31,4.69,3.61.46,1.62-.73,3.69-2.54,4.9-2.79,1.89-5.6,3.77-8.19,5.91-3.61,3-5.66,7.09-7.21,11.45-1.39,3.93-5.38,5-7.81,1.9a4.79,4.79,0,0,1-.71-3.77,37.38,37.38,0,0,1,18.1-22.24C678.79,194.41,680.05,193.89,681.27,193.31Z"/><path class="cls-4" d="M798.84,248.9c3.42.47,5.19,2.82,4.29,5.82-1,3.27-2.18,6.48-3,9.78-1.08,4.27-.46,8.52.59,12.73a17.6,17.6,0,0,1,.66,3.49c.13,2.64-1.21,4.29-3.58,4.66-1.91.3-4.42-1.44-5-3.48-1.51-5.65-2.59-11.46-1.61-17.23.79-4.62,2.58-9.1,4.27-13.51C795.88,250.13,797.69,249.64,798.84,248.9Z"/><path class="cls-4" d="M748.64,173.7c0-2.27,1.73-3.9,4.79-4A30.23,30.23,0,0,0,774.35,160c1.93-2,4.63-2.14,6.42-.48a4.45,4.45,0,0,1-.17,6.6c-6.25,6.12-13.34,10.73-22.31,11.64a33.28,33.28,0,0,1-6.59.38C749.55,178,748.51,176.31,748.64,173.7Z"/><path class="cls-4" d="M584.59,249.39c3.47,0,5.22,2.44,4.11,5.79-.85,2.58-1.74,5.15-2.57,7.73-1.55,4.81-1,9.59.22,14.37a17.58,17.58,0,0,1,.61,3.5c.11,2.64-1.25,4.27-3.63,4.61a5.14,5.14,0,0,1-4.87-3.36c-2.9-10.13-2.52-20.06,2-29.69C581.2,250.68,582.31,249.11,584.59,249.39Z"/><path class="cls-4" d="M625.8,399c-2.3.33-3.08-1.39-4.14-2.79-2.88-3.8-5.6-7.76-8.8-11.26-2.05-2.24-4.82-3.83-7.33-5.61-2.27-1.62-3-4.08-1.75-6.19a4.5,4.5,0,0,1,6.33-1.34,50,50,0,0,1,14.58,13c1.68,2.31,3.2,4.74,4.74,7.15a4.58,4.58,0,0,1,.38,5A3.72,3.72,0,0,1,625.8,399Z"/><path class="cls-4" d="M822.12,370.84a14.78,14.78,0,0,1,3.17,1.45c3.48,2.74,7.21,5.28,10.19,8.49a93,93,0,0,1,8.62,11.62,4.34,4.34,0,0,1-1.65,6.21,4.8,4.8,0,0,1-6.34-2.14c-2.49-4.26-5.16-8.42-8.93-11.67-2.37-2-5-3.74-7.59-5.58a4.61,4.61,0,0,1-1.81-5.25C818.52,372.21,819.69,370.76,822.12,370.84Z"/><path class="cls-4" d="M625.82,184.63c-2.3.31-3.11-1.37-4.17-2.78A133.72,133.72,0,0,0,613.3,171c-2.15-2.35-5-4.12-7.61-6-2.09-1.45-3.25-4.39-2.12-6.18a4.89,4.89,0,0,1,6.71-1.35c8.41,5,14.59,12.08,19.37,20.43a6.35,6.35,0,0,1,.08,4.59A3.34,3.34,0,0,1,625.82,184.63Z"/><path class="cls-4" d="M822,156.62a8.1,8.1,0,0,1,2.18.64c6.82,4.24,12.77,9.42,17.1,16.29.82,1.3,1.63,2.62,2.47,3.92,1.63,2.5,1.22,5.28-1,6.66s-5,.33-6.69-2.13a103.43,103.43,0,0,0-8.54-11.15c-2.2-2.37-5.18-4-7.84-5.95a4.68,4.68,0,0,1-1.88-5.42A4.27,4.27,0,0,1,822,156.62Z"/><path class="cls-4" d="M704.61,375.43c-7.6-.94-15.39-3.12-21.88-8.68-1.35-1.14-2.58-2.42-4-3.5-1.9-1.48-1.67-3.59-1-5.24a3.69,3.69,0,0,1,4.38-2.25,7.13,7.13,0,0,1,3.24,1.7c5.61,5.75,12.61,8.41,20.4,9.39,2.86.36,4.47,2.14,4.3,4.91C709.9,374.06,708.11,375.43,704.61,375.43Z"/><path class="cls-4" d="M490.63,161.08c-8.27-.94-15.95-3.42-22.47-8.87-1.14-1-2.28-1.91-3.35-3-2.13-2.07-2.44-4.79-.81-6.46,2.08-2.13,4.72-2,7,.29a30.65,30.65,0,0,0,18.73,9.06,10,10,0,0,1,5,2.16,3.56,3.56,0,0,1,.52,4.47A4.14,4.14,0,0,1,490.63,161.08Z"/><path class="cls-4" d="M705.34,161.12c-8.3-1.05-16.17-3.22-22.71-8.83-1.29-1.1-2.59-2.19-3.79-3.38-2-2-2.18-4.28-.48-6.1s4.44-2,6.61-.17c1.71,1.46,3.39,3,5.16,4.35,3.88,3,8.47,4.22,13.19,5.07,1.17.21,2.39.24,3.53.56A4.52,4.52,0,0,1,710,157.5,4.07,4.07,0,0,1,705.34,161.12Z"/><path class="cls-4" d="M490.55,375.81c-3.85-1-7.78-1.76-11.55-3-5.3-1.76-9.75-5-13.83-8.8-2.33-2.16-2.9-5-1.34-6.68,2.15-2.35,4.73-2.35,7.31.25a30.36,30.36,0,0,0,14.68,8.21c1.77.43,3.56.77,5.36,1,3.06.48,4.68,2.22,4.49,5C495.5,374.15,493.71,375.44,490.55,375.81Z"/><path class="cls-4" d="M632.44,345c-2.93-.42-4.5-1.74-4.71-4.28s1.16-4.16,3.79-4.72c4.43-.92,9-1.48,12.79-4.3a49.2,49.2,0,0,0,6.52-6c1.52-1.66,4.32-2.42,6.24-1.21a4.24,4.24,0,0,1,1,6.13c-3.84,5.07-8.48,9.25-14.63,11.32C639.87,343.15,636.13,344,632.44,345Z"/><path class="cls-4" d="M555.26,249.17c-.11,1.39-.19,3.44-.47,5.47-.41,2.9-2.68,4.31-5.8,3.73-2-.37-3.61-2.92-3.12-5.32,1.51-7.45-.66-14-4.71-20.13-2.41-3.63-1.45-6.76,2.39-7.62A4,4,0,0,1,547.9,227C552.2,233.51,555.29,240.49,555.26,249.17Z"/><path class="cls-4" d="M555.43,33.62a67.14,67.14,0,0,1-.95,7.07c-.71,3-2.45,3.91-5.19,3.33a4.19,4.19,0,0,1-3.42-5.2,24.79,24.79,0,0,0-4.55-19.74,12.91,12.91,0,0,1-1.11-2.27,4.06,4.06,0,0,1,1.86-5.38c2-1.09,4.81-.59,5.87,1.25,2.74,4.7,5.73,9.31,6.56,14.86C554.81,29.62,555.14,31.7,555.43,33.62Z"/><path class="cls-4" d="M769.72,33.6c-.2,2.44-.29,4.49-.54,6.52-.31,2.53-2.54,4.38-4.7,4-3.05-.49-4.77-2.46-4.23-5.28,1.44-7.59-.56-14.29-4.87-20.51C753,15,754.24,11.42,758,11c1.35-.16,3.48.52,4.16,1.54,3.14,4.71,5.87,9.69,6.93,15.36C769.43,29.89,769.53,31.94,769.72,33.6Z"/><path class="cls-4" d="M651.3,250.67a4,4,0,0,1-4.16,4.29,74.91,74.91,0,0,0-8.75.23c-4.83.65-8.81,3.38-12.78,6-2.44,1.6-5.13,1.41-6.39-.48-1.76-2.63-1.18-4.81,1.57-6.79,4.7-3.37,9.6-6.47,15.44-7.19a82.36,82.36,0,0,1,12-.26C650,246.51,651.29,248.54,651.3,250.67Z"/><path class="cls-4" d="M769.77,248.91a63.61,63.61,0,0,1-1,6.4c-.68,2.75-2.67,3.72-5.55,3.05a4.57,4.57,0,0,1-3-5c1.45-7.59-.65-14.28-4.78-20.59a6,6,0,0,1-1-4.26,5.08,5.08,0,0,1,3-3,3.86,3.86,0,0,1,4.76,1.62,43.31,43.31,0,0,1,6.79,15.21C769.49,244.34,769.52,246.41,769.77,248.91Z"/><path class="cls-4" d="M622.65,48.18c-1.94-.26-3.25-1-3.93-2.71-.75-1.94-.82-3.87,1-5.17,5.73-4.11,11.63-8,19-8.26,2.94-.12,5.88-.1,8.82,0a3.83,3.83,0,0,1,3.76,4.22c-.07,2.67-1.59,4.27-4.13,4.32-2.84.06-5.72-.08-8.53.25-5,.59-9.13,3.34-13.21,6.09A18.39,18.39,0,0,1,622.65,48.18Z"/><path class="cls-4" d="M633.08,130.2c-3.38,0-5.22-1.35-5.34-3.55-.18-3.44,1.44-4.57,3.9-5,4.25-.81,8.64-1.43,12.23-4a73.55,73.55,0,0,0,7.46-6.56c1.49-1.43,4.26-2,5.88-.83s2.43,4.35.94,6c-2.86,3.09-5.76,6.29-9.18,8.66C644.09,128.19,638.31,129.6,633.08,130.2Z"/><path class="cls-4" d="M519.17,335.13c-6.5-.58-12.27,2.39-17.71,6.38a4.51,4.51,0,0,1-7.31-2.56c-.67-2.36.92-3.78,2.5-4.91,4.85-3.47,10-6.5,16-7.31a66.78,66.78,0,0,1,11.14-.11c1.76.06,3.68,2.76,3.52,4.45a4.37,4.37,0,0,1-4.2,4.06Z"/><path class="cls-4" d="M733.52,335.13c-6.51-.56-12.22,2.33-17.46,6.31-1.71,1.29-4.91,1.38-6.38-.23s-2.15-4.35.36-6.28c4.91-3.77,10.07-7,16.37-8,3.7-.58,7.33-1.1,11.09-.44,2.23.39,4.34,2.36,4.22,4.47a4.38,4.38,0,0,1-4.4,4.14C736.18,335.15,735,335.13,733.52,335.13Z"/><path class="cls-4" d="M733.38,120.76c-6.45-.59-12.09,2.48-17.42,6.31-3.1,2.24-6.84.51-7.37-2.42a4.21,4.21,0,0,1,1.8-4.47c5.87-4.2,12-7.89,19.51-8,2.72,0,5.46-.09,8.18,0,1.8.09,3.71,2.54,3.64,4.33a4.66,4.66,0,0,1-4,4.18C736.41,120.81,735.12,120.76,733.38,120.76Z"/><path class="cls-4" d="M519.67,120.76c-7.06-.71-12.77,2.49-18.23,6.37-2.89,2.05-6.83.68-7.2-2.52-.13-1.21.26-3,1.1-3.71,5.79-4.68,12.09-8.38,19.82-8.69,2.72-.11,5.45-.08,8.17,0a4.58,4.58,0,0,1,4,4.4,4.63,4.63,0,0,1-4.25,4.14Z"/><path class="cls-4" d="M542.91,292.64c-.23,2.44-1.23,3.81-3.33,4.44a3.68,3.68,0,0,1-4.49-1.6c-2-3-3.46-6.29-5.69-9s-5.32-5-7.8-7.66a7.4,7.4,0,0,1-2.16-4.28,3.7,3.7,0,0,1,3.45-3.9,9.42,9.42,0,0,1,5.07,1.94,47.88,47.88,0,0,1,14.34,18.19A12.94,12.94,0,0,1,542.91,292.64Z"/><path class="cls-4" d="M757.29,78.25a4.66,4.66,0,0,1-3.14,4.42,3.66,3.66,0,0,1-4.67-1.57c-1.84-2.63-3.14-5.67-5.16-8.13a86.68,86.68,0,0,0-8.51-8.74c-1.82-1.66-2.54-4.62-1.07-6.51a4.47,4.47,0,0,1,6.2-.61,48.39,48.39,0,0,1,15.73,19.27A13.43,13.43,0,0,1,757.29,78.25Z"/><path class="cls-4" d="M542.83,78.07a4.59,4.59,0,0,1-3.43,4.74,3.62,3.62,0,0,1-4.3-1.7c-1.5-2.26-2.43-5-4.15-7a109.17,109.17,0,0,0-9.34-9.78c-2.29-2.15-2.92-4.27-1.28-6.55,1.46-2,3.81-2.28,6.32-.5a42.48,42.48,0,0,1,12.87,14.09c1,1.77,1.93,3.57,2.85,5.38A8.14,8.14,0,0,1,542.83,78.07Z"/><path class="cls-4" d="M733.54,275.27c.32-2.29,1.16-3.62,3-4.46s3.08-.2,4.48.77c7,4.87,11.86,11.52,15.6,19.07a4.58,4.58,0,0,1-1.78,6.22,4.69,4.69,0,0,1-6-2.19c-2.11-4.15-4.27-8.25-7.73-11.47-1.73-1.6-3.63-3-5.29-4.71A20.71,20.71,0,0,1,733.54,275.27Z"/><path class="cls-4" d="M572.39,332.19c0-3,2.51-3.89,4.37-5.16a48.08,48.08,0,0,1,17-6.82,24.1,24.1,0,0,1,4.4-.49,4.29,4.29,0,1,1,.76,8.55c-4.88.87-9.78,1.7-14.17,4.18-2.19,1.23-4.17,2.89-6.44,3.89C575.1,337.74,572.45,335.74,572.39,332.19Z"/><path class="cls-4" d="M811.34,105.34c3.66,0,5.78,1.65,5.86,4.09.08,2.15-2,4.27-4.19,4.52a40.85,40.85,0,0,0-19.38,7.47c-2.19,1.58-4.45,1.36-5.86-.39a4.29,4.29,0,0,1,.55-6.23,40.73,40.73,0,0,1,16.89-8.17C807.53,106.11,809.86,105.65,811.34,105.34Z"/><path class="cls-4" d="M572.4,118.07c-.16-2,1.13-3.13,2.53-4.14a49.69,49.69,0,0,1,21.6-8.58c3.08-.5,5.31.72,6.11,3.41.64,2.13-1.36,4.84-3.65,5.16-4.71.68-9.38,1.59-13.63,3.85-1.91,1-3.66,2.31-5.5,3.46-1.59,1-3.17,1.78-5.11.75A4.3,4.3,0,0,1,572.4,118.07Z"/><path class="cls-4" d="M786.31,331.82a16.33,16.33,0,0,1,2.61-3.23,44.76,44.76,0,0,1,17.82-8,39.62,39.62,0,0,1,5.82-.84,4.51,4.51,0,0,1,4.66,4c.22,2.06-1.66,4.22-4,4.54-7.17,1-13.86,3.23-19.68,7.67-1.31,1-2.68,1.35-4.1.47s-3-2-2.58-4.21Z"/><path class="cls-4" d="M428.79,342c0-2.87-.07-5.58,0-8.28a3.32,3.32,0,0,1,1-1.91c2.2-2.15,4.55-4.14,6.7-6.34,1.42-1.46,4.76-2,6.38-.82a4.22,4.22,0,0,1,.82,6C440.88,334.57,435.22,340,428.79,342Z"/><path class="cls-4" d="M428.79,127.68c0-3.08-.06-5.86,0-8.64a2.83,2.83,0,0,1,1-1.59c2.12-2,4.42-3.9,6.41-6,1.61-1.74,4.62-2.51,6.53-1.26a4.53,4.53,0,0,1,.84,6.31C439.74,121.44,435.15,125.48,428.79,127.68Z"/><path class="cls-4" d="M428.84,255v-9c2.7-.08,5.39-.3,7.3,2.06a4,4,0,0,1,.25,4.75C434.6,256.11,431.59,254.6,428.84,255Z"/><path class="cls-4" d="M428.9,31.52c2.9.3,6-.31,7.47,2.67a5.56,5.56,0,0,1-.16,4.52c-1.64,2.83-4.63,1.73-7.31,1.87Z"/></g><rect class="cls-1" x="342.56" y="176.69" width="190.27" height="190.27"/><rect class="cls-1" x="234.11" y="73.58" width="421.56" height="395.83"/><text class="cls-5" transform="translate(398.35 137.34)">R<tspan class="cls-6" x="10.39" y="0">VNU</tspan></text></svg>