<svg width="190" height="33" viewBox="0 0 190 33" fill="none" xmlns="http://www.w3.org/2000/svg">
<rect width="190" height="33" rx="16.5" fill="#000000"/>
<path d="M48.1047 21V11.2H54.2507V12.404H49.5887V15.498H53.4527V16.688H49.5887V21H48.1047ZM58.0291 21.168C57.4411 21.168 56.9557 21.07 56.5731 20.874C56.1904 20.678 55.9057 20.4213 55.7191 20.104C55.5324 19.7773 55.4391 19.4227 55.4391 19.04C55.4391 18.368 55.7004 17.836 56.2231 17.444C56.7457 17.052 57.4924 16.856 58.4631 16.856H60.2831V16.73C60.2831 16.1887 60.1337 15.7827 59.8351 15.512C59.5457 15.2413 59.1677 15.106 58.7011 15.106C58.2904 15.106 57.9311 15.2087 57.6231 15.414C57.3244 15.61 57.1424 15.904 57.0771 16.296H55.5931C55.6397 15.792 55.8077 15.3627 56.0971 15.008C56.3957 14.644 56.7691 14.3687 57.2171 14.182C57.6744 13.986 58.1737 13.888 58.7151 13.888C59.6857 13.888 60.4371 14.1447 60.9691 14.658C61.5011 15.162 61.7671 15.8527 61.7671 16.73V21H60.4791L60.3531 19.81C60.1571 20.1927 59.8724 20.5147 59.4991 20.776C59.1257 21.0373 58.6357 21.168 58.0291 21.168ZM58.3231 19.964C58.7244 19.964 59.0604 19.8707 59.3311 19.684C59.6111 19.488 59.8257 19.2313 59.9751 18.914C60.1337 18.5967 60.2317 18.2467 60.2691 17.864H58.6171C58.0291 17.864 57.6091 17.9667 57.3571 18.172C57.1144 18.3773 56.9931 18.634 56.9931 18.942C56.9931 19.2593 57.1097 19.5113 57.3431 19.698C57.5857 19.8753 57.9124 19.964 58.3231 19.964ZM66.8294 21.168C65.952 21.168 65.2287 20.9533 64.6594 20.524C64.09 20.0947 63.7634 19.5253 63.6794 18.816H65.1774C65.252 19.1333 65.4294 19.4087 65.7094 19.642C65.9894 19.866 66.358 19.978 66.8154 19.978C67.2634 19.978 67.59 19.8847 67.7954 19.698C68.0007 19.5113 68.1034 19.2967 68.1034 19.054C68.1034 18.6993 67.9587 18.4613 67.6694 18.34C67.3894 18.2093 66.9974 18.0927 66.4934 17.99C66.1014 17.906 65.7094 17.794 65.3174 17.654C64.9347 17.514 64.6127 17.318 64.3514 17.066C64.0994 16.8047 63.9734 16.4547 63.9734 16.016C63.9734 15.4093 64.2067 14.9053 64.6734 14.504C65.14 14.0933 65.7934 13.888 66.6334 13.888C67.408 13.888 68.0334 14.0747 68.5094 14.448C68.9947 14.8213 69.2794 15.3487 69.3634 16.03H67.9354C67.8887 15.7313 67.7487 15.498 67.5154 15.33C67.2914 15.162 66.988 15.078 66.6054 15.078C66.232 15.078 65.9427 15.1573 65.7374 15.316C65.532 15.4653 65.4294 15.6613 65.4294 15.904C65.4294 16.1467 65.5694 16.338 65.8494 16.478C66.1387 16.618 66.5167 16.744 66.9834 16.856C67.45 16.9587 67.8794 17.08 68.2714 17.22C68.6727 17.3507 68.9947 17.5467 69.2374 17.808C69.48 18.0693 69.6014 18.452 69.6014 18.956C69.6107 19.5907 69.3634 20.118 68.8594 20.538C68.3647 20.958 67.688 21.168 66.8294 21.168ZM74.4337 21C73.7523 21 73.211 20.8367 72.8097 20.51C72.4083 20.174 72.2077 19.5813 72.2077 18.732V15.302H71.0177V14.056H72.2077L72.3897 12.292H73.6917V14.056H75.6517V15.302H73.6917V18.732C73.6917 19.1147 73.771 19.3807 73.9297 19.53C74.0977 19.67 74.3823 19.74 74.7837 19.74H75.5817V21H74.4337ZM84.9092 21.168C84.2092 21.168 83.5978 21.0467 83.0752 20.804C82.5618 20.552 82.1605 20.202 81.8712 19.754C81.5818 19.306 81.4372 18.7833 81.4372 18.186C81.4372 17.5327 81.6192 16.9493 81.9832 16.436C82.3565 15.9227 82.9025 15.512 83.6212 15.204C83.3225 14.868 83.1078 14.5507 82.9772 14.252C82.8465 13.9533 82.7812 13.6267 82.7812 13.272C82.7812 12.628 83.0145 12.096 83.4812 11.676C83.9478 11.2467 84.5965 11.032 85.4272 11.032C85.9685 11.032 86.4352 11.1347 86.8272 11.34C87.2192 11.5453 87.5178 11.8207 87.7232 12.166C87.9285 12.5113 88.0265 12.9033 88.0172 13.342H86.5752C86.5845 12.9687 86.4678 12.684 86.2252 12.488C85.9918 12.292 85.7212 12.194 85.4132 12.194C85.0492 12.194 84.7598 12.2967 84.5452 12.502C84.3305 12.698 84.2232 12.95 84.2232 13.258C84.2232 13.5287 84.2978 13.7947 84.4472 14.056C84.6058 14.3173 84.8438 14.6113 85.1612 14.938L88.0732 17.864C88.3065 17.5093 88.5585 17.0893 88.8292 16.604L89.1932 15.918H90.7332L90.1732 16.94C89.7905 17.6867 89.4125 18.312 89.0392 18.816L91.2232 21H89.4032L88.2132 19.81C87.7278 20.286 87.2192 20.6313 86.6872 20.846C86.1552 21.0607 85.5625 21.168 84.9092 21.168ZM82.8792 18.102C82.8792 18.6247 83.0658 19.0587 83.4392 19.404C83.8218 19.7493 84.3212 19.922 84.9372 19.922C85.3945 19.922 85.8098 19.8427 86.1832 19.684C86.5565 19.516 86.9205 19.2453 87.2752 18.872L84.4892 16.086C83.9478 16.31 83.5418 16.5947 83.2712 16.94C83.0098 17.276 82.8792 17.6633 82.8792 18.102ZM99.7759 21.168C98.8985 21.168 98.1752 20.9533 97.6059 20.524C97.0365 20.0947 96.7099 19.5253 96.6259 18.816H98.1239C98.1985 19.1333 98.3759 19.4087 98.6559 19.642C98.9359 19.866 99.3045 19.978 99.7619 19.978C100.21 19.978 100.537 19.8847 100.742 19.698C100.947 19.5113 101.05 19.2967 101.05 19.054C101.05 18.6993 100.905 18.4613 100.616 18.34C100.336 18.2093 99.9439 18.0927 99.4399 17.99C99.0479 17.906 98.6559 17.794 98.2639 17.654C97.8812 17.514 97.5592 17.318 97.2979 17.066C97.0459 16.8047 96.9199 16.4547 96.9199 16.016C96.9199 15.4093 97.1532 14.9053 97.6199 14.504C98.0865 14.0933 98.7399 13.888 99.5799 13.888C100.355 13.888 100.98 14.0747 101.456 14.448C101.941 14.8213 102.226 15.3487 102.31 16.03H100.882C100.835 15.7313 100.695 15.498 100.462 15.33C100.238 15.162 99.9345 15.078 99.5519 15.078C99.1785 15.078 98.8892 15.1573 98.6839 15.316C98.4785 15.4653 98.3759 15.6613 98.3759 15.904C98.3759 16.1467 98.5159 16.338 98.7959 16.478C99.0852 16.618 99.4632 16.744 99.9299 16.856C100.397 16.9587 100.826 17.08 101.218 17.22C101.619 17.3507 101.941 17.5467 102.184 17.808C102.427 18.0693 102.548 18.452 102.548 18.956C102.557 19.5907 102.31 20.118 101.806 20.538C101.311 20.958 100.635 21.168 99.7759 21.168ZM105.568 12.74C105.288 12.74 105.055 12.656 104.868 12.488C104.691 12.3107 104.602 12.0913 104.602 11.83C104.602 11.5687 104.691 11.354 104.868 11.186C105.055 11.0087 105.288 10.92 105.568 10.92C105.848 10.92 106.077 11.0087 106.254 11.186C106.441 11.354 106.534 11.5687 106.534 11.83C106.534 12.0913 106.441 12.3107 106.254 12.488C106.077 12.656 105.848 12.74 105.568 12.74ZM104.826 21V14.056H106.31V21H104.826ZM108.829 21V14.056H110.145L110.271 15.036C110.495 14.6813 110.789 14.4013 111.153 14.196C111.526 13.9907 111.956 13.888 112.441 13.888C113.542 13.888 114.308 14.322 114.737 15.19C114.989 14.7887 115.325 14.4713 115.745 14.238C116.174 14.0047 116.636 13.888 117.131 13.888C117.999 13.888 118.68 14.1493 119.175 14.672C119.67 15.1947 119.917 15.974 119.917 17.01V21H118.433V17.164C118.433 15.82 117.92 15.148 116.893 15.148C116.37 15.148 115.941 15.344 115.605 15.736C115.278 16.128 115.115 16.688 115.115 17.416V21H113.631V17.164C113.631 15.82 113.113 15.148 112.077 15.148C111.564 15.148 111.139 15.344 110.803 15.736C110.476 16.128 110.313 16.688 110.313 17.416V21H108.829ZM122.213 24.08V14.056H123.543L123.697 15.134C123.921 14.8073 124.229 14.518 124.621 14.266C125.013 14.014 125.517 13.888 126.133 13.888C126.805 13.888 127.398 14.0467 127.911 14.364C128.424 14.6813 128.826 15.1153 129.115 15.666C129.414 16.2167 129.563 16.842 129.563 17.542C129.563 18.242 129.414 18.8673 129.115 19.418C128.826 19.9593 128.424 20.3887 127.911 20.706C127.398 21.014 126.8 21.168 126.119 21.168C125.578 21.168 125.097 21.0607 124.677 20.846C124.266 20.6313 123.94 20.328 123.697 19.936V24.08H122.213ZM125.867 19.88C126.502 19.88 127.024 19.6653 127.435 19.236C127.846 18.7973 128.051 18.228 128.051 17.528C128.051 17.0707 127.958 16.6647 127.771 16.31C127.584 15.9553 127.328 15.68 127.001 15.484C126.674 15.2787 126.296 15.176 125.867 15.176C125.232 15.176 124.71 15.3953 124.299 15.834C123.898 16.2727 123.697 16.8373 123.697 17.528C123.697 18.228 123.898 18.7973 124.299 19.236C124.71 19.6653 125.232 19.88 125.867 19.88ZM131.728 21V10.92H133.212V21H131.728ZM138.9 21.168C138.218 21.168 137.612 21.0187 137.08 20.72C136.557 20.412 136.146 19.9873 135.848 19.446C135.549 18.9047 135.4 18.2747 135.4 17.556C135.4 16.828 135.544 16.1887 135.834 15.638C136.132 15.0873 136.543 14.658 137.066 14.35C137.598 14.042 138.214 13.888 138.914 13.888C139.595 13.888 140.188 14.042 140.692 14.35C141.196 14.6487 141.588 15.05 141.868 15.554C142.148 16.058 142.288 16.6133 142.288 17.22C142.288 17.3133 142.283 17.416 142.274 17.528C142.274 17.6307 142.269 17.7473 142.26 17.878H136.856C136.902 18.55 137.122 19.0633 137.514 19.418C137.915 19.7633 138.377 19.936 138.9 19.936C139.32 19.936 139.67 19.8427 139.95 19.656C140.239 19.46 140.454 19.1987 140.594 18.872H142.078C141.891 19.5253 141.518 20.0713 140.958 20.51C140.407 20.9487 139.721 21.168 138.9 21.168ZM138.9 15.106C138.405 15.106 137.966 15.2553 137.584 15.554C137.201 15.8433 136.968 16.282 136.884 16.87H140.804C140.776 16.3287 140.584 15.8993 140.23 15.582C139.875 15.2647 139.432 15.106 138.9 15.106Z" fill="white"/>
</svg>
